<svg width="20" height="18" viewBox="0 0 20 18" fill="none" xmlns="http://www.w3.org/2000/svg">
<path d="M14.44 0.10199C12.63 0.10199 11.01 0.98199 10 2.33199C9.48413 1.6408 8.81426 1.07938 8.04353 0.692284C7.27281 0.305188 6.42247 0.103075 5.56 0.10199C2.49 0.10199 0 2.60199 0 5.69199C0 6.88199 0.19 7.98199 0.52 9.00199C2.1 14.002 6.97 16.992 9.38 17.812C9.72 17.932 10.28 17.932 10.62 17.812C13.03 16.992 17.9 14.002 19.48 9.00199C19.81 7.98199 20 6.88199 20 5.69199C20 2.60199 17.51 0.10199 14.44 0.10199Z" fill="#21A6F8"/>
</svg>
