<svg width="166" height="230" viewBox="0 0 166 230" fill="none" xmlns="http://www.w3.org/2000/svg">
<path d="M13.8159 128.565C13.8159 128.565 19.6833 123.88 27.4611 130.804" stroke="#21A6F8" stroke-width="2" stroke-miterlimit="10" stroke-linecap="round" stroke-linejoin="round"/>
<path d="M66.9415 74.7528C66.9415 74.7528 70.3528 72.8457 70.8531 68.5756C71.3534 64.3055 69.0792 62.7302 66.0773 60.7402C63.0753 58.7502 65.577 57.092 63.1663 53.5681C60.7556 50.0442 56.1163 48.0543 53.0234 49.6711C49.9305 51.2879 45.0637 55.7653 42.0617 55.5995C39.0598 55.4751 35.5575 53.9412 31.7369 55.7653C27.9162 57.548 26.7336 60.8231 27.052 62.6887C27.3249 64.5543 27.9617 66.0053 27.9617 66.0053C27.9617 66.0053 27.234 63.5178 26.7791 63.0618C26.2788 62.6058 23.4588 63.2276 24.0956 65.5907C24.7778 67.9952 25.0962 68.6171 25.0962 68.6171C25.0962 68.6171 21.2756 70.1925 20.7753 73.1359C20.2749 76.0794 21.5485 77.4061 22.2307 78.0279C22.913 78.6498 25.5966 80.5153 25.0507 82.0907C24.5049 83.6661 23.2769 85.4073 23.2769 88.2679C23.3224 91.1284 25.642 92.7867 27.052 93.4086C28.462 93.989 31.0546 94.3621 31.0546 94.3621C31.0546 94.3621 30.6453 91.9576 32.3282 91.087C34.0111 90.2164 35.3301 90.4651 36.1943 91.3772C36.1943 91.3772 39.0143 89.5531 39.4692 87.1485C39.924 84.744 39.9695 82.3809 39.6966 81.303C39.6966 81.303 43.2443 81.4689 46.0643 78.8985C48.8843 76.3282 47.7472 72.6799 49.7485 71.5606C51.7498 70.4412 52.2047 71.8508 54.4334 71.9751C56.6621 72.0995 60.2099 71.9337 61.4834 70.7729C62.7115 69.6535 63.7121 68.4098 63.7121 68.4098C63.7121 68.4098 66.5776 74.2138 66.9415 74.7528Z" fill="#21A6F8" fill-opacity="0.6"/>
<path d="M55.7522 96.1846C55.7522 96.1846 57.708 96.765 60.0277 96.8894C62.3473 96.9723 63.348 96.4748 63.257 96.8894C63.1661 97.3039 61.9835 99.4597 61.2102 99.7499C60.437 100.04 58.3447 100.703 57.0712 99.5841C55.8431 98.4647 55.3883 97.3039 55.7522 96.1846Z" fill="#21A6F8"/>
<path d="M70.1253 125.205C70.1253 125.205 66.623 131.672 66.8959 132.004C67.1688 132.336 69.6704 135.652 69.6704 135.652C69.6704 135.652 66.2591 154.93 65.7588 159.615C65.2585 164.299 64.3488 165.667 65.9862 168.196C67.6237 170.725 71.4898 175.534 75.174 176.861C78.8582 178.188 82.0876 168.943 83.0882 165.916C84.0434 162.89 80.0863 149.043 80.0863 149.043L75.8108 134.118C75.8108 134.118 77.2208 131.175 76.8114 129.848L70.1253 125.205Z" fill="#E8E7FD"/>
<path d="M102.964 183.039C102.964 183.039 100.326 189.175 78.3575 193.196C56.3888 197.217 35.6026 193.984 29.1439 190.128C29.1439 190.128 23.0035 192.45 17.9548 191.372C17.9548 191.372 14.2706 201.57 13.8158 203.229C13.4519 204.638 10.6319 216.785 13.27 227.233C13.27 227.233 29.1439 229.264 56.0249 229.264C83.2243 229.264 101.236 227.233 101.236 227.233C102.51 217.656 104.556 198.088 102.964 183.039Z" fill="#21A6F8"/>
<path d="M164.05 30.4762C164.096 29.1495 130.801 6.348 126.48 6.59675C123.342 6.76258 111.607 19.1169 95.0509 37.1923C93.0496 39.348 103.647 38.2287 103.647 38.2287L106.012 63.642C106.149 65.0516 107.513 66.1295 109.105 65.9637L133.985 63.725L131.574 41.4209L150.086 39.7626L152.497 62.0667L156.363 61.735C157.819 61.6106 158.91 60.4084 158.728 59.0403L155.272 32.4247C155.226 32.4247 164.005 31.8028 164.05 30.4762ZM112.79 53.8167L111.653 43.1621L126.526 41.8355L127.663 52.49L112.79 53.8167ZM129.073 30.8493C125.798 31.1395 122.842 28.9423 122.523 25.9573C122.205 22.9724 124.615 20.2777 127.89 19.9875C131.165 19.6973 134.122 21.8945 134.44 24.8794C134.758 27.8644 132.348 30.5591 129.073 30.8493Z" fill="#21A6F8"/>
<path d="M66.8506 131.963C66.8506 131.963 69.2157 135.073 70.2164 135.487C71.217 135.902 74.4009 135.404 75.4471 134.451C76.4932 133.497 76.7661 129.808 76.7661 129.808" stroke="#21A6F8" stroke-width="2" stroke-miterlimit="10" stroke-linecap="round" stroke-linejoin="round"/>
<path d="M69.7157 135.156C69.7157 135.156 65.6676 156.465 65.1673 165.337C64.9853 169.026 71.5351 175.867 75.5831 176.986C78.8125 177.857 83.088 168.197 83.2244 164.383C83.3609 160.569 77.0386 137.602 75.7196 134.119" stroke="#21A6F8" stroke-width="2" stroke-miterlimit="10" stroke-linecap="round" stroke-linejoin="round"/>
<path d="M61.4383 83.2522C61.5292 83.4595 61.6202 83.6668 61.7112 83.8326C62.1205 83.2108 62.4844 82.5889 62.8938 81.967C63.0302 81.967 63.1212 82.0085 63.2576 82.0085H63.2122C63.3031 82.0499 63.4396 82.0914 63.5305 82.1329C63.5305 82.1329 63.4851 82.1329 63.4851 82.0914C63.576 82.1743 63.667 82.2158 63.758 82.2987C63.758 82.2987 63.7125 82.2987 63.7125 82.2572C63.8034 82.3401 63.8489 82.4231 63.9399 82.506L63.8944 82.4645C63.9399 82.5474 63.9854 82.6718 64.0309 82.7547V82.7133C64.0309 82.8376 64.0763 82.9205 64.0763 83.0449V83.0035C64.0763 83.1278 64.0309 83.2107 64.0309 83.3351V83.2937C63.9854 83.3766 63.9399 83.5009 63.8944 83.5839V83.5424C63.8034 83.6253 63.758 83.7082 63.667 83.7912C63.8034 83.6668 63.8944 83.5424 63.9399 83.3766C64.0309 83.2107 64.0763 83.0864 64.0763 82.8791C64.0763 82.7133 64.0309 82.5474 63.9399 82.3816C63.8944 82.2158 63.8034 82.0914 63.667 81.967C63.576 81.8841 63.4851 81.8427 63.3941 81.7597C63.1667 81.6354 62.9392 81.5939 62.7118 81.5939C62.5754 81.5939 62.4844 81.6354 62.348 81.6354C62.1205 81.6768 61.9386 81.8012 61.7567 81.967C61.6657 82.0499 61.5747 82.1329 61.5292 82.2572C61.4838 82.3401 61.4383 82.4645 61.3928 82.5474C61.3473 82.6718 61.3473 82.8376 61.3473 82.9205C61.3473 83.0449 61.3928 83.2107 61.3928 83.2937C61.4383 83.418 61.5292 83.6253 61.5292 83.6253C61.5292 83.6253 61.5292 83.6668 61.5747 83.6668C61.7567 83.9155 61.7567 83.9155 61.9841 84.0399C62.0296 84.0814 62.0751 84.1228 62.166 84.1643C62.2115 84.2057 62.4389 84.2886 62.4844 84.2886C62.4844 84.2886 62.4844 84.2886 62.5299 84.2886C62.6663 84.2886 62.7573 84.3301 62.8938 84.3301C63.1212 84.3301 63.3486 84.2886 63.576 84.1643C63.8034 84.0399 63.9399 83.9155 64.0763 83.7082C64.2128 83.5009 64.2583 83.2937 64.2583 83.0864C64.2583 82.8791 64.2128 82.6718 64.0763 82.4645C63.9854 82.2572 63.8944 82.0499 63.8034 81.8841C63.7125 81.7597 63.6215 81.6354 63.4396 81.5525C63.3031 81.4281 63.1667 81.3866 62.9847 81.3452C62.8028 81.3037 62.6209 81.3037 62.4389 81.3037C62.257 81.3037 62.0751 81.3452 61.9386 81.4695C61.8476 81.5525 61.7567 81.5939 61.6657 81.6768C61.4838 81.8427 61.3928 82.0085 61.3018 82.2158C61.3018 82.3401 61.2563 82.4231 61.2563 82.5474C61.2563 82.8791 61.3473 83.0864 61.4383 83.2522Z" fill="#21A6F8"/>
<path d="M52.8411 86.2385C52.9321 86.4458 53.0231 86.6531 53.114 86.8189C53.5234 86.1971 53.8872 85.5752 54.2966 84.9534C54.4331 84.9534 54.524 84.9948 54.6605 84.9948H54.615C54.706 85.0363 54.8424 85.0777 54.9334 85.1192C54.9334 85.1192 54.8879 85.1192 54.8879 85.0777C54.9789 85.1607 55.0698 85.2021 55.1608 85.285C55.1608 85.285 55.1153 85.285 55.1153 85.2436C55.2063 85.3265 55.2518 85.4094 55.3427 85.4923L55.2973 85.4509C55.3427 85.5338 55.3882 85.6581 55.4337 85.741V85.6996C55.4337 85.824 55.4792 85.9069 55.4792 86.0313V85.9898C55.4792 86.1142 55.4337 86.1971 55.4337 86.3215V86.28C55.3882 86.3629 55.3427 86.4873 55.2973 86.5702V86.5287C55.2063 86.6117 55.1608 86.6946 55.0698 86.7775C55.2063 86.6531 55.2973 86.5287 55.3427 86.3629C55.4337 86.1971 55.4792 86.0727 55.4792 85.8654C55.4792 85.6996 55.4337 85.5338 55.3427 85.3679C55.2973 85.2021 55.2063 85.0777 55.0698 84.9534C54.9789 84.8704 54.8879 84.829 54.7969 84.7461C54.5695 84.6217 54.3421 84.5802 54.1147 84.5802C53.9782 84.5802 53.8873 84.6217 53.7508 84.6217C53.5234 84.6632 53.3414 84.7875 53.1595 84.9534C53.0685 85.0363 52.9776 85.1192 52.9321 85.2436C52.8866 85.3265 52.8411 85.4508 52.7956 85.5338C52.7502 85.6581 52.7502 85.824 52.7502 85.9069C52.7502 86.0313 52.7956 86.1971 52.7956 86.28C52.8411 86.4044 52.9321 86.6117 52.9321 86.6117C52.9321 86.6117 52.9321 86.6531 52.9776 86.6531C53.1595 86.9019 53.1595 86.9019 53.3869 87.0262C53.4324 87.0677 53.4779 87.1091 53.5689 87.1506C53.6143 87.1921 53.8418 87.275 53.8873 87.275C53.8873 87.275 53.8873 87.275 53.9327 87.275C54.0692 87.275 54.1602 87.3164 54.2966 87.3164C54.524 87.3164 54.7514 87.275 54.9789 87.1506C55.2063 87.0262 55.3427 86.9019 55.4792 86.6946C55.6156 86.4873 55.6611 86.28 55.6611 86.0727C55.6611 85.8654 55.6156 85.6581 55.4792 85.4509C55.3882 85.2436 55.2973 85.0363 55.2063 84.8705C55.1153 84.7461 55.0244 84.6217 54.8424 84.5388C54.706 84.4144 54.5695 84.373 54.3876 84.3315C54.2056 84.29 54.0237 84.29 53.8418 84.29C53.6598 84.29 53.4779 84.3315 53.3414 84.4559C53.2505 84.5388 53.1595 84.5803 53.0685 84.6632C52.8866 84.829 52.7956 84.9948 52.7047 85.2021C52.7047 85.3265 52.6592 85.4094 52.6592 85.5338C52.6592 85.8654 52.7502 86.0727 52.8411 86.2385Z" fill="#21A6F8"/>
<path d="M76.7661 105.639C76.7661 105.639 90.7297 106.012 103.329 107.546" stroke="#21A6F8" stroke-width="2" stroke-miterlimit="10" stroke-linecap="round" stroke-linejoin="round"/>
<path d="M109.878 108.499C109.878 108.499 110.833 94.8181 113.562 87.8947C116.291 80.9713 127.389 83.0857 130.71 83.9977C134.03 84.8683 137.942 113.142 133.848 120.231C129.755 127.321 117.656 131.466 94.7773 132.876" stroke="#21A6F8" stroke-width="2" stroke-miterlimit="10" stroke-linecap="round" stroke-linejoin="round"/>
<path d="M109.878 108.499C109.878 108.499 109.697 110.738 109.878 112.686" stroke="#21A6F8" stroke-width="2" stroke-miterlimit="10" stroke-linecap="round" stroke-linejoin="round"/>
<path d="M66.0314 66.9173C66.0314 66.9173 64.6669 66.8344 62.7111 69.4876C60.7552 72.1409 56.0704 72.7628 52.0678 71.4361C49.1114 70.4412 48.4746 72.5969 47.383 76.411C46.2914 80.2251 40.8333 82.5467 37.0581 80.5153" stroke="#21A6F8" stroke-width="2" stroke-miterlimit="10" stroke-linecap="round" stroke-linejoin="round"/>
<path d="M39.6053 81.2617C39.6053 81.2617 41.3792 87.8534 36.103 91.3358" stroke="#21A6F8" stroke-width="2" stroke-miterlimit="10" stroke-linecap="round" stroke-linejoin="round"/>
<path d="M37.1039 92.4542C37.1039 92.4542 35.5119 89.718 32.8284 90.7959C30.1448 91.8738 30.6906 95.7293 32.8284 97.1389C34.9661 98.5484 37.1039 97.7193 37.1039 97.7193C37.1039 97.7193 37.8771 114.717 38.0136 115.173C38.15 115.629 46.3826 122.303 58.1175 124.211C69.8068 126.076 70.762 124.957 71.7172 124.211C73.3091 122.925 77.7211 116.292 78.3578 110.654C78.3578 110.654 72.8998 91.625 72.3085 90.9203C71.7172 90.2155 77.1753 86.1112 75.3104 84.7017C73.4456 83.2921 67.0323 76.7004 63.712 68.6162" stroke="#21A6F8" stroke-width="2" stroke-miterlimit="10" stroke-linecap="round" stroke-linejoin="round"/>
<path d="M65.1218 94.6943C65.1218 94.6943 62.1198 95.9795 59.2088 95.3162C55.843 94.5285 55.6156 95.1504 55.5701 96.5185C55.5246 97.8865 56.3434 100.167 59.2998 100.208C62.7111 100.25 63.8027 96.933 63.2569 95.1918" stroke="#21A6F8" stroke-width="2" stroke-miterlimit="10" stroke-linecap="round" stroke-linejoin="round"/>
<path d="M55.7524 97.8438C55.7524 97.8438 59.5276 96.7659 60.9831 99.8752" stroke="#21A6F8" stroke-width="2" stroke-miterlimit="10" stroke-linecap="round" stroke-linejoin="round"/>
<path d="M51.5678 79.0635C51.5678 79.0635 49.9304 79.0635 47.7017 81.5924" stroke="#21A6F8" stroke-width="2" stroke-miterlimit="10" stroke-linecap="round" stroke-linejoin="round"/>
<path d="M58.9819 76.4509C59.5277 76.2021 60.5739 75.7046 62.2113 76.1192" stroke="#21A6F8" stroke-width="2" stroke-miterlimit="10" stroke-linecap="round" stroke-linejoin="round"/>
<path d="M35.2389 117.66C34.966 118.987 38.7412 124.667 46.5644 129.559C56.7073 135.902 64.2122 138.182 65.1219 135.86C66.0315 133.539 70.2161 124.957 70.2161 124.957C70.2161 124.957 75.6742 129.186 78.3122 130.885C80.9503 132.585 82.6787 129.725 83.179 120.936C83.6793 112.147 80.1771 108.208 77.4025 107.462" stroke="#21A6F8" stroke-width="2" stroke-miterlimit="10" stroke-linecap="round" stroke-linejoin="round"/>
<path d="M54.6608 141.416C54.6608 141.416 46.5647 142.826 39.5146 143.074" stroke="#21A6F8" stroke-width="2" stroke-miterlimit="10" stroke-linecap="round" stroke-linejoin="round"/>
<path d="M58.2079 41.6277C58.2079 41.6277 59.8909 39.6792 62.9838 38.7257C65.5763 37.938 69.2605 38.6428 69.2605 38.6428C69.2605 38.6428 70.7615 35.6164 73.8544 34.7043C76.6289 33.8752 79.449 34.6214 79.449 34.6214C79.449 34.6214 81.6777 31.7608 83.7245 30.8073C86.4535 29.5222 90.9564 30.6415 90.9564 30.6415C90.9564 30.6415 85.8622 18.2872 72.3989 20.1528C57.5257 22.2257 55.4334 36.2382 58.2079 41.6277Z" stroke="#21A6F8" stroke-width="2" stroke-miterlimit="10" stroke-linecap="round" stroke-linejoin="round"/>
<path d="M73.8999 34.7041C73.8999 34.7041 80.6315 52.0747 82.1325 52.5308C83.6335 52.9868 87.5451 51.1212 84.2702 48.2606" stroke="#21A6F8" stroke-width="2" stroke-miterlimit="10" stroke-linecap="round" stroke-linejoin="round"/>
<path d="M66.9413 74.7528C66.9413 74.7528 70.9894 72.3897 70.9894 66.9173C70.9894 61.445 63.53 61.4035 64.2577 57.548C64.9855 53.6924 58.8452 47.5568 52.9777 49.6711C47.1103 51.7854 46.1551 57.1334 38.0135 55.2678C29.8719 53.4022 24.5957 60.8646 28.1435 66.3369" stroke="#21A6F8" stroke-width="2" stroke-miterlimit="10" stroke-linecap="round" stroke-linejoin="round"/>
<path d="M31.1451 94.6931C22.4577 93.0348 22.1393 87.9355 24.5045 83.6654C26.8241 79.3953 20.6838 79.0222 20.5474 74.7936C20.4109 70.5649 25.0958 68.6164 25.0958 68.6164C25.0958 68.6164 23.6403 66.3777 24.2315 64.0146" stroke="#21A6F8" stroke-width="2" stroke-miterlimit="10" stroke-linecap="round" stroke-linejoin="round"/>
<path d="M33.7378 94.0303C33.7378 94.0303 35.5571 93.4913 36.103 95.4398" stroke="#21A6F8" stroke-width="2" stroke-miterlimit="10" stroke-linecap="round" stroke-linejoin="round"/>
<path d="M158.683 59.0403L155.18 32.4247C155.18 32.4247 163.959 31.8028 164.004 30.4762C164.05 29.1495 130.755 6.348 126.434 6.59675C123.296 6.76258 111.561 19.1169 95.005 37.1923C93.0037 39.348 103.601 38.2287 103.601 38.2287L105.967 63.642C106.103 65.0516 107.468 66.1295 109.06 65.9637L156.317 61.735C157.818 61.5692 158.864 60.3669 158.683 59.0403Z" stroke="#21A6F8" stroke-width="2" stroke-miterlimit="10" stroke-linecap="round" stroke-linejoin="round"/>
<path d="M103.328 77.5304C103.328 82.5053 97.8702 86.5267 92.7305 86.5267C87.5454 86.5267 83.3608 82.5053 83.3608 77.5304C83.3608 72.5555 87.5454 68.5342 92.7305 68.5342C97.8702 68.5342 103.328 72.5555 103.328 77.5304Z" stroke="#21A6F8" stroke-width="2" stroke-miterlimit="10" stroke-linecap="round" stroke-linejoin="round"/>
<path d="M89.9106 77.531C89.9106 77.531 92.1394 80.1842 93.3219 79.6453C94.5045 79.1063 96.7332 73.7998 96.7332 73.7998" stroke="#21A6F8" stroke-width="2" stroke-miterlimit="10" stroke-linecap="round" stroke-linejoin="round"/>
<path d="M130.755 83.9563C131.483 82.298 133.075 81.0543 134.985 80.6812C136.441 80.391 138.124 79.9764 139.443 79.4375C142.581 78.1938 141.899 75.9551 141.899 75.9551" stroke="#21A6F8" stroke-width="2" stroke-miterlimit="10" stroke-linecap="round" stroke-linejoin="round"/>
<path d="M140.034 76.8681C140.034 76.8681 141.672 75.9975 141.672 74.6294C141.672 73.0955 140.58 72.0176 140.58 72.0176" stroke="#21A6F8" stroke-width="2" stroke-miterlimit="10" stroke-linecap="round" stroke-linejoin="round"/>
<path d="M136.85 74.752C136.85 74.752 138.487 74.0058 138.805 72.1817C139.033 70.7721 138.396 69.6113 138.396 69.6113" stroke="#21A6F8" stroke-width="2" stroke-miterlimit="10" stroke-linecap="round" stroke-linejoin="round"/>
<path d="M134.03 68.1191C134.03 68.1191 135.349 69.4043 134.894 70.5651V70.6066C134.621 71.3943 133.712 71.8918 132.802 71.7674C130.937 71.5601 127.253 71.2284 124.206 71.9332C121.158 72.638 118.338 74.2963 117.565 76.4106C116.382 79.5614 118.338 83.6656 118.338 83.6656" stroke="#21A6F8" stroke-width="2" stroke-miterlimit="10" stroke-linecap="round" stroke-linejoin="round"/>
<path d="M120.521 73.3851C120.521 73.3851 123.568 70.6489 125.479 70.3587C127.298 70.0685 127.344 71.5195 127.344 71.5195" stroke="#21A6F8" stroke-width="2" stroke-miterlimit="10" stroke-linecap="round" stroke-linejoin="round"/>
<path d="M34.7837 192.533C34.7837 192.533 50.1118 196.845 73.1267 193.943C106.739 189.714 104.42 178.686 104.42 178.686C104.42 178.686 99.5529 135.861 89.8193 122.885" stroke="#21A6F8" stroke-width="2" stroke-miterlimit="10" stroke-linecap="round" stroke-linejoin="round"/>
<path d="M102.964 183.039C102.964 183.039 104.238 208.826 101.373 227.937" stroke="#21A6F8" stroke-width="2" stroke-miterlimit="10" stroke-linecap="round" stroke-linejoin="round"/>
<path d="M15.499 164.673C15.499 164.673 29.8265 156.962 42.38 154.267C47.5652 153.189 50.7946 153.23 52.341 154.806" stroke="#21A6F8" stroke-width="2" stroke-miterlimit="10" stroke-linecap="round" stroke-linejoin="round"/>
<path d="M57.2077 168.488C57.2077 168.488 57.1167 170.312 55.8432 171.598C50.8854 176.697 37.0583 188.512 26.7789 190.792C13.907 193.653 0.216288 188.139 1.035 170.022C0.58016 163.638 5.8563 135.654 16.6815 125.207C27.5067 114.76 37.786 112.853 37.786 112.853" stroke="#21A6F8" stroke-width="2" stroke-miterlimit="10" stroke-linecap="round" stroke-linejoin="round"/>
<path d="M68.6245 151.49C68.2151 153.231 66.3048 155.595 63.2119 156.465" stroke="#21A6F8" stroke-width="2" stroke-miterlimit="10" stroke-linecap="round" stroke-linejoin="round"/>
<path d="M69.4885 154.6C69.4885 154.6 68.6243 158.58 65.1675 159.616" stroke="#21A6F8" stroke-width="2" stroke-miterlimit="10" stroke-linecap="round" stroke-linejoin="round"/>
<path d="M69.3972 161.897C68.1691 163.763 66.2133 165.131 63.9391 165.836C62.1652 166.416 59.4817 166.872 57.2984 167.038C54.5694 167.245 51.8859 166.084 50.4304 163.97C48.7475 161.483 49.2933 158.705 50.2029 157.669C50.8397 156.922 56.6162 150.455 58.8904 148.755C61.2556 147.014 62.4836 148.672 61.392 150.911C61.1646 151.367 60.6643 152.362 60.4823 152.694C60.2094 153.233 60.7097 153.398 60.9372 153.44C62.3472 153.564 64.303 152.859 66.3498 150.87" stroke="#21A6F8" stroke-width="2" stroke-miterlimit="10" stroke-linecap="round" stroke-linejoin="round"/>
<path d="M66.3496 162.228C66.3496 162.228 68.3054 161.565 69.0332 160.28C69.7609 158.995 69.6699 158.497 69.6699 158.497" stroke="#21A6F8" stroke-width="2" stroke-miterlimit="10" stroke-linecap="round" stroke-linejoin="round"/>
<path d="M87.5908 204.64C87.5908 204.64 89.6831 211.563 86.5902 219.481C84.6798 224.29 78.9943 225.949 78.9943 225.949L78.2666 227.897" stroke="#21A6F8" stroke-width="2" stroke-miterlimit="10" stroke-linecap="round" stroke-linejoin="round"/>
<path d="M78.949 225.948C78.949 225.948 78.8126 217.947 68.8516 213.967" stroke="#21A6F8" stroke-width="2" stroke-miterlimit="10" stroke-linecap="round" stroke-linejoin="round"/>
<path d="M12.1328 213.966C12.1328 213.966 31.1451 213.966 34.8293 192.491" stroke="#21A6F8" stroke-width="2" stroke-miterlimit="10" stroke-linecap="round" stroke-linejoin="round"/>
<path d="M113.062 11.2819L110.014 9.66504" stroke="#21A6F8" stroke-width="2" stroke-miterlimit="10" stroke-linecap="round" stroke-linejoin="round"/>
<path d="M119.339 4.73116L117.202 1" stroke="#21A6F8" stroke-width="2" stroke-miterlimit="10" stroke-linecap="round" stroke-linejoin="round"/>
<path d="M134.166 5.97395L136.031 3.65234" stroke="#21A6F8" stroke-width="2" stroke-miterlimit="10" stroke-linecap="round" stroke-linejoin="round"/>
<path d="M133.939 63.725L131.529 41.421L150.041 39.7627L152.451 62.0668" stroke="#21A6F8" stroke-width="2" stroke-miterlimit="10" stroke-linecap="round" stroke-linejoin="round"/>
<path d="M126.46 41.8608L111.613 43.1904L112.76 53.8351L127.607 52.5055L126.46 41.8608Z" stroke="#21A6F8" stroke-width="2" stroke-miterlimit="10" stroke-linecap="round" stroke-linejoin="round"/>
<path d="M128.481 30.891C131.797 30.891 134.485 28.441 134.485 25.4187C134.485 22.3964 131.797 19.9463 128.481 19.9463C125.165 19.9463 122.477 22.3964 122.477 25.4187C122.477 28.441 125.165 30.891 128.481 30.891Z" stroke="#21A6F8" stroke-width="2" stroke-miterlimit="10" stroke-linecap="round" stroke-linejoin="round"/>
</svg>
