<svg width="24" height="24" viewBox="0 0 24 24" fill="none" xmlns="http://www.w3.org/2000/svg">
<path opacity="0.4" d="M12 22C17.523 22 22 17.523 22 12C22 6.477 17.523 2 12 2C6.477 2 2 6.477 2 12C2 17.523 6.477 22 12 22Z" fill="#21A6F8"/>
<path d="M13.0599 11.9996L15.3599 9.69958C15.6499 9.40958 15.6499 8.92958 15.3599 8.63958C15.2187 8.5001 15.0283 8.42188 14.8299 8.42188C14.6314 8.42188 14.441 8.5001 14.2999 8.63958L11.9999 10.9396L9.69986 8.63958C9.55872 8.5001 9.36829 8.42188 9.16986 8.42188C8.97143 8.42188 8.781 8.5001 8.63986 8.63958C8.34986 8.92958 8.34986 9.40958 8.63986 9.69958L10.9399 11.9996L8.63986 14.2996C8.34986 14.5896 8.34986 15.0696 8.63986 15.3596C8.78986 15.5096 8.97986 15.5796 9.16986 15.5796C9.35986 15.5796 9.54986 15.5096 9.69986 15.3596L11.9999 13.0596L14.2999 15.3596C14.4499 15.5096 14.6399 15.5796 14.8299 15.5796C15.0199 15.5796 15.2099 15.5096 15.3599 15.3596C15.6499 15.0696 15.6499 14.5896 15.3599 14.2996L13.0599 11.9996Z" fill="#21A6F8"/>
</svg>
