<svg width="25" height="23" viewBox="0 0 25 23" fill="none" xmlns="http://www.w3.org/2000/svg">
<path d="M3.89199 0.984375C2.26699 0.984375 0.639961 2.10938 0.639961 4.35938L3.89199 10.3594L7.14199 4.35938C7.14199 2.10938 5.51699 0.984375 3.89199 0.984375ZM18.2275 2.8125C17.8771 2.82609 17.5369 2.8875 17.2525 2.94375L17.4455 3.76875C17.7299 3.71016 18.0244 3.67313 18.2732 3.65625L18.2275 2.8125ZM3.89199 2.85938C4.79082 2.85938 5.51699 3.53109 5.51699 4.35938C5.51699 5.18906 4.79082 5.85938 3.89199 5.85938C2.99469 5.85938 2.26699 5.18906 2.26699 4.35938C2.26699 3.53109 2.99469 2.85938 3.89199 2.85938ZM19.2381 2.86875L19.0857 3.69844C19.3346 3.74672 19.5834 3.80719 19.8018 3.92813L20.2436 3.1875C19.9338 3.03516 19.5885 2.89828 19.2381 2.86875ZM16.3182 3.18281C16.0084 3.29438 15.6986 3.39422 15.4346 3.49219L15.7951 4.26562C16.0744 4.15594 16.3689 4.06031 16.6178 3.97969L16.3182 3.18281ZM21.0764 3.81094L20.3807 4.35938C20.5635 4.5525 20.7057 4.79063 20.8174 4.98281L21.635 4.60312C21.4623 4.29609 21.31 4.06359 21.0764 3.81094ZM14.5865 3.85312C14.2768 3.99891 14.0229 4.12875 13.7486 4.25625L14.1955 4.99687C14.4596 4.85625 14.749 4.72031 14.9826 4.6125L14.5865 3.85312ZM12.9463 4.69219C12.6771 4.8375 12.4131 4.98281 12.1541 5.14219L12.6518 5.84531C12.9006 5.69531 13.1596 5.55469 13.4135 5.41406L12.9463 4.69219ZM21.9498 5.53125C21.6502 5.57812 21.3455 5.61094 21.0459 5.64375C21.0662 5.87813 21.051 6.13125 21.0002 6.32812L21.8889 6.52031C21.9396 6.18281 21.9854 5.83594 21.9498 5.53125ZM11.3822 5.61094C11.1283 5.77031 10.8795 5.93437 10.6256 6.09375L11.1537 6.78281C11.3975 6.61875 11.6463 6.46406 11.8951 6.30469L11.3822 5.61094ZM9.8791 6.6C9.6252 6.76875 9.36113 6.95625 9.14277 7.11094L9.69629 7.78125C9.97559 7.59375 10.1686 7.45312 10.4225 7.27969L9.8791 6.6ZM20.6955 6.975C20.5432 7.19063 20.3654 7.40625 20.1877 7.57031L20.8529 8.15625C21.0713 7.91719 21.3049 7.67344 21.4674 7.42969L20.6955 6.975ZM8.4166 7.63594C8.16777 7.81406 7.91895 7.99687 7.70059 8.16562L8.27949 8.81719C8.51816 8.63438 8.76191 8.44688 8.98535 8.29688L8.4166 7.63594ZM19.558 8.10938C19.3244 8.28281 19.0807 8.45156 18.8572 8.59219L19.3803 9.28594C19.6494 9.11719 19.9135 8.93437 20.142 8.76562L19.558 8.10938ZM6.99473 8.71406C6.75605 8.89219 6.52754 9.07969 6.29394 9.2625L6.88809 9.90469C7.1166 9.72188 7.34512 9.53906 7.57871 9.36094L6.99473 8.71406ZM18.1107 9.04219C17.8518 9.18281 17.5826 9.32812 17.3389 9.45L17.7756 10.1953C18.0498 10.0406 18.3596 9.90469 18.5881 9.76406L18.1107 9.04219ZM5.59824 9.82031C5.36973 10.0078 5.14629 10.1953 4.91777 10.3875L5.53223 11.0156C5.75566 10.8281 5.98418 10.6406 6.20762 10.4531L5.59824 9.82031ZM16.5416 9.83906C16.2725 9.96094 16.0033 10.0875 15.7342 10.2094L16.1252 10.9688C16.44 10.8281 16.6736 10.7109 16.958 10.5891L16.5416 9.83906ZM14.9166 10.5609C14.6373 10.6781 14.3682 10.7906 14.0838 10.8984L14.4545 11.6719C14.7338 11.5594 15.0131 11.4422 15.2924 11.325L14.9166 10.5609ZM4.24746 10.9688C3.98848 11.1797 3.8082 11.3438 3.57207 11.5547L4.21699 12.1641C4.45566 11.9531 4.64863 11.7703 4.87207 11.5922L4.24746 10.9688ZM13.251 11.2406C12.9717 11.3484 12.6924 11.4609 12.4131 11.5688L12.7686 12.3516C13.0529 12.2437 13.3322 12.1312 13.6115 12.0187L13.251 11.2406ZM11.5701 11.8969C11.2908 12.0094 11.0115 12.1219 10.7271 12.225L11.0826 13.0078C11.3619 12.9 11.6463 12.7875 11.9256 12.6797L11.5701 11.8969ZM20.9545 12.2344C19.3295 12.2344 17.7045 13.3594 17.7045 15.6094L20.9545 21.6094L24.2045 15.6094C24.2045 13.3594 22.5795 12.2344 20.9545 12.2344ZM9.88418 12.5531C9.59473 12.675 9.29004 12.7875 9.04121 12.8859L9.40176 13.6641C9.70137 13.5469 9.98574 13.4344 10.2396 13.3312L9.88418 12.5531ZM8.19824 13.2188C7.92402 13.3359 7.6041 13.4672 7.36035 13.5703L7.73613 14.3391C8.03574 14.2172 8.29981 14.0953 8.56387 13.9922L8.19824 13.2188ZM6.52246 13.9219C6.23809 14.0484 5.94355 14.1797 5.68965 14.2969L6.10098 15.0516C6.3752 14.9203 6.65957 14.7984 6.9084 14.6859L6.52246 13.9219ZM20.9545 14.1094C21.8533 14.1094 22.5795 14.7797 22.5795 15.6094C22.5795 16.4391 21.8533 17.1094 20.9545 17.1094C20.0557 17.1094 19.3295 16.4391 19.3295 15.6094C19.3295 14.7797 20.0557 14.1094 20.9545 14.1094ZM4.86699 14.6859C4.59785 14.8219 4.32871 14.9625 4.05449 15.1078L4.51152 15.8391C4.77051 15.6984 5.03457 15.5672 5.29863 15.4359L4.86699 14.6859ZM3.25723 15.5625C2.97234 15.7125 2.69711 15.9141 2.45996 16.0594L3.01348 16.7344C3.26586 16.5656 3.53754 16.3922 3.75488 16.2703L3.25723 15.5625ZM1.73887 16.6219C1.49512 16.8281 1.25492 17.0672 1.06855 17.2687L1.76426 17.8172C1.95977 17.5969 2.12988 17.4328 2.3584 17.2453L1.73887 16.6219ZM12.799 16.6828L12.8803 17.5219C13.1443 17.4797 13.4084 17.5078 13.6725 17.5453L13.8299 16.7156C13.4947 16.6688 13.1393 16.6359 12.799 16.6828ZM10.91 17.1516L11.2553 17.9344C11.5193 17.8266 11.7936 17.7422 12.0729 17.6625C11.9764 17.3953 11.9053 17.1234 11.8291 16.8516C11.5092 16.9359 11.1893 17.0484 10.91 17.1516ZM14.8455 17.1094L14.3275 17.8031C14.5408 17.9484 14.749 18.1031 14.9166 18.2953L15.6072 17.7422C15.3482 17.4984 15.1502 17.2687 14.8455 17.1094ZM10.0467 17.5312C9.76738 17.6625 9.49824 17.8125 9.2291 17.9578L9.69121 18.6844C9.95527 18.5531 10.2143 18.3984 10.4732 18.2719L10.0467 17.5312ZM0.510469 18.0469C0.357109 18.3516 0.232695 18.6797 0.174805 18.9703L1.07363 19.1156C1.12848 18.8484 1.20719 18.6562 1.32246 18.4266C1.04367 18.3141 0.777578 18.1781 0.510469 18.0469ZM8.43691 18.4125C8.17793 18.5672 7.92402 18.7219 7.67012 18.8812L8.17793 19.5844C8.43184 19.4297 8.68066 19.2703 8.93457 19.1156L8.43691 18.4125ZM16.1912 18.4688L15.4244 18.9281C15.5869 19.1531 15.7443 19.3875 15.8916 19.6266L16.6838 19.2047C16.5061 18.9422 16.3791 18.7078 16.1912 18.4688ZM6.91348 19.3594C6.65957 19.5141 6.40566 19.6641 6.15684 19.8281L6.66465 20.5312C6.9084 20.3672 7.16738 20.2125 7.42637 20.0531L6.91348 19.3594ZM1.08379 19.8047C0.789766 19.8609 0.493203 19.9078 0.197656 19.9594C0.250977 20.2875 0.393672 20.6063 0.522656 20.8594L1.34785 20.4938C1.23766 20.2594 1.13305 20.0156 1.08379 19.8047ZM17.1357 19.9359L16.3436 20.3578C16.501 20.6109 16.6838 20.8828 16.8311 21.0984L17.5979 20.6437C17.4252 20.3953 17.2779 20.1609 17.1357 19.9359ZM5.40527 20.2875C5.15137 20.4328 4.90254 20.5734 4.63848 20.7094L5.09043 21.4453C5.35957 21.3 5.62871 21.1547 5.88769 21L5.40527 20.2875ZM1.78457 21.0516L1.15996 21.6703C1.4423 21.9187 1.79066 22.0828 2.17051 22.1578L2.37363 21.3375C2.14816 21.2953 1.93742 21.1922 1.78457 21.0516ZM3.8666 21.0656C3.61219 21.1734 3.34812 21.2578 3.07441 21.3094L3.28262 22.1344C3.60863 22.0734 3.91535 21.9609 4.22207 21.8438L3.8666 21.0656ZM18.1006 21.2906L17.3947 21.8203C17.6131 22.0688 17.8822 22.3078 18.1158 22.4766L18.6795 21.8109C18.4561 21.6516 18.2631 21.4594 18.1006 21.2906ZM19.3244 22.1109L19.0959 22.9313C19.4971 23.0063 19.7967 23.0297 20.1725 22.9922L20.0607 22.1531C19.8119 22.1906 19.5682 22.1672 19.3244 22.1109Z" fill="#979797"/>
</svg>
