<svg width="36" height="36" viewBox="0 0 36 36" fill="none" xmlns="http://www.w3.org/2000/svg">
<circle cx="18" cy="18" r="18" fill="#21A6F8"/>
<path fill-rule="evenodd" clip-rule="evenodd" d="M18.0262 9.25002C20.0037 9.25877 21.8937 10.0463 23.2762 11.4288C24.6675 12.82 25.4462 14.7013 25.4375 16.6525V16.6963C25.385 19.3475 23.8975 21.7888 22.0425 23.6963C20.9925 24.7725 19.8287 25.7263 18.56 26.5313C18.2188 26.82 17.72 26.82 17.3787 26.5313C15.4975 25.3063 13.835 23.7663 12.4875 21.9725C11.3062 20.415 10.6325 18.5425 10.5625 16.5913C10.58 12.5225 13.9225 9.24127 18.0262 9.25002ZM18.0262 19.1025C18.6475 19.1025 19.2425 18.8663 19.68 18.4375C20.135 17.9913 20.3896 17.3971 20.3896 16.775C20.3896 15.48 19.33 14.4388 18.0262 14.4388C16.7225 14.4388 15.6725 15.48 15.6725 16.775C15.6725 18.0534 16.705 19.085 18 19.1025H18.0262Z" fill="white"/>
</svg>
