<svg width="28" height="28" viewBox="0 0 28 28" fill="none" xmlns="http://www.w3.org/2000/svg">
<path fill-rule="evenodd" clip-rule="evenodd" d="M14.0349 2.33401C16.6716 2.34567 19.1916 3.39567 21.0349 5.23901C22.8899 7.09401 23.9283 9.60234 23.9166 12.204V12.2623C23.8466 15.7973 21.8633 19.0523 19.3899 21.5957C17.9899 23.0307 16.4383 24.3023 14.7466 25.3757C14.2916 25.7607 13.6266 25.7607 13.1716 25.3757C10.6633 23.7423 8.44659 21.689 6.64992 19.2973C5.07492 17.2207 4.17659 14.724 4.08325 12.1223C4.10659 6.69734 8.56325 2.32234 14.0349 2.33401ZM14.0349 15.4707C14.8633 15.4707 15.6566 15.1557 16.2399 14.584C16.8466 13.989 17.1861 13.1968 17.1861 12.3673C17.1861 10.6407 15.7733 9.25234 14.0349 9.25234C12.2966 9.25234 10.8966 10.6407 10.8966 12.3673C10.8966 14.0718 12.2733 15.4473 13.9999 15.4707H14.0349Z" fill="#21A6F8"/>
</svg>
