<svg width="66" height="79" viewBox="0 0 66 79" fill="none" xmlns="http://www.w3.org/2000/svg">
<path d="M65.2417 37.9898C65.2417 37.2288 65.1558 36.4246 65.0986 35.5631C65.0447 34.9346 64.7573 34.3495 64.2933 33.9239C63.8294 33.4982 63.2229 33.2633 62.5943 33.2656H37.3649C37.0348 33.2637 36.7076 33.3273 36.4021 33.4527C36.0966 33.5782 35.8188 33.763 35.5848 33.9965C35.3507 34.23 35.1649 34.5077 35.0382 34.8135C34.9114 35.1193 34.8462 35.4473 34.8462 35.7785V41.7232C34.8462 42.3935 35.1116 43.0363 35.5839 43.5103C36.0562 43.9842 36.6969 44.2505 37.3649 44.2505H52.72V44.4372C52.7235 46.2589 52.2813 48.0537 51.4321 49.664C50.5462 51.3474 49.3059 52.8174 47.7972 53.9718C46.1807 55.2392 44.3545 56.2113 42.4021 56.8436C40.3002 57.5301 38.1012 57.8696 35.8909 57.8488C32.899 57.8521 29.938 57.2413 27.1901 56.0539C24.4716 54.912 21.9983 53.2543 19.906 51.1717C17.7609 49.0772 16.0605 46.5688 14.907 43.7975C13.7536 41.0262 13.171 38.0493 13.1944 35.0461C13.1659 31.9938 13.7297 28.9651 14.8544 26.129C15.9178 23.4343 17.5257 20.9898 19.5769 18.9493C21.6181 16.9307 24.0216 15.318 26.6606 14.1964C29.4356 13.0413 32.4144 12.4601 35.4186 12.4876C38.5793 12.4818 41.7038 13.1627 44.5773 14.4836C46.9552 15.5933 49.174 17.018 51.1745 18.7196C51.6607 19.126 52.2822 19.3326 52.914 19.298C53.5458 19.2634 54.1412 18.99 54.5804 18.5329L59.0452 13.8948C59.4965 13.424 59.7486 12.7962 59.7486 12.143C59.7486 11.4898 59.4965 10.8619 59.0452 10.3911C57.5703 8.89234 55.9336 7.56308 54.1654 6.42796C51.461 4.67542 48.5151 3.33046 45.4217 2.43606C42.1969 1.48229 38.8521 0.998698 35.4902 1.00012C30.7843 0.987985 26.12 1.88501 21.7521 3.64224C17.6229 5.26823 13.8612 7.70973 10.6901 10.8219C7.56958 13.9187 5.08082 17.5963 3.36312 21.6489C1.57195 25.8845 0.670689 30.4452 0.715677 35.0461C0.668765 39.6793 1.53442 44.2761 3.26294 48.5727C4.92966 52.6508 7.40824 56.3447 10.547 59.4283C13.7226 62.5142 17.4648 64.9525 21.5661 66.608C25.8932 68.4065 30.5347 69.3194 35.2183 69.2932C39.2722 69.3413 43.2982 68.6152 47.0817 67.1536C50.6152 65.7999 53.8451 63.7547 56.5838 61.1371C59.3137 58.5203 61.4852 55.3742 62.9663 51.8897C64.5498 48.1249 65.3392 44.0718 65.2846 39.9858C65.2846 39.4114 65.2703 38.7509 65.2417 37.9898Z" fill="white" stroke="white"/>
<path d="M64.0538 38.0194L62.451 36.368C58.8448 41.9825 44.706 63.1913 33.83 60.4487C31.1969 59.7881 28.2489 57.5768 24.843 55.0783C17.0152 49.1909 15.2121 44.8831 10.9619 44.7683C9.28753 44.7683 6.76888 45.4144 3.64919 49.0761C3.47233 49.289 3.36065 49.5487 3.32764 49.8239C3.29463 50.0991 3.34169 50.3779 3.46315 50.6269C6.04919 55.6012 9.30959 60.1919 13.1514 64.2683C18.7431 70.2029 25.4629 74.9535 32.9142 78.2399C33.0967 78.321 33.2941 78.3629 33.4937 78.3629C33.6934 78.3629 33.8908 78.321 34.0733 78.2399C40.6251 75.5965 46.6721 71.8364 51.9471 67.1258C56.598 62.9472 61.392 58.6394 64.0538 51.2013C65.6159 46.5873 66.1627 41.6883 65.6566 36.8419C65.6566 36.7414 65.6566 36.4255 65.6566 36.368C65.6566 36.3106 64.6548 37.1434 64.0538 38.0194Z" fill="white"/>
</svg>
