<svg width="284" height="130" viewBox="0 0 284 130" fill="none" xmlns="http://www.w3.org/2000/svg">
<path d="M171.242 36.9898C171.242 36.2288 171.156 35.4246 171.099 34.5631C171.045 33.9346 170.757 33.3495 170.293 32.9239C169.829 32.4982 169.223 32.2633 168.594 32.2656H143.365C143.035 32.2637 142.708 32.3273 142.402 32.4527C142.097 32.5782 141.819 32.763 141.585 32.9965C141.351 33.23 141.165 33.5077 141.038 33.8135C140.911 34.1193 140.846 34.4473 140.846 34.7785V40.7232C140.846 41.3935 141.112 42.0363 141.584 42.5103C142.056 42.9842 142.697 43.2505 143.365 43.2505H158.72V43.4372C158.724 45.2589 158.281 47.0537 157.432 48.664C156.546 50.3474 155.306 51.8174 153.797 52.9718C152.181 54.2392 150.354 55.2113 148.402 55.8436C146.3 56.5301 144.101 56.8696 141.891 56.8488C138.899 56.8521 135.938 56.2413 133.19 55.0539C130.472 53.912 127.998 52.2543 125.906 50.1717C123.761 48.0772 122.06 45.5688 120.907 42.7975C119.754 40.0262 119.171 37.0493 119.194 34.0461C119.166 30.9938 119.73 27.9651 120.854 25.129C121.918 22.4343 123.526 19.9898 125.577 17.9493C127.618 15.9307 130.022 14.318 132.661 13.1964C135.436 12.0413 138.414 11.4601 141.419 11.4876C144.579 11.4818 147.704 12.1627 150.577 13.4836C152.955 14.5933 155.174 16.018 157.174 17.7196C157.661 18.126 158.282 18.3326 158.914 18.298C159.546 18.2634 160.141 17.99 160.58 17.5329L165.045 12.8948C165.496 12.424 165.749 11.7962 165.749 11.143C165.749 10.4898 165.496 9.86194 165.045 9.39114C163.57 7.89234 161.934 6.56308 160.165 5.42796C157.461 3.67542 154.515 2.33046 151.422 1.43606C148.197 0.48229 144.852 -0.00130247 141.49 0.000121525C136.784 -0.0120151 132.12 0.885015 127.752 2.64224C123.623 4.26823 119.861 6.70973 116.69 9.82192C113.57 12.9187 111.081 16.5963 109.363 20.6489C107.572 24.8845 106.671 29.4452 106.716 34.0461C106.669 38.6793 107.534 43.2761 109.263 47.5727C110.93 51.6508 113.408 55.3447 116.547 58.4283C119.723 61.5142 123.465 63.9525 127.566 65.608C131.893 67.4065 136.535 68.3194 141.218 68.2932C145.272 68.3413 149.298 67.6152 153.082 66.1536C156.615 64.7999 159.845 62.7547 162.584 60.1371C165.314 57.5203 167.485 54.3742 168.966 50.8897C170.55 47.1249 171.339 43.0718 171.285 38.9858C171.285 38.4114 171.27 37.7509 171.242 36.9898Z" fill="url(#paint0_linear_53_2200)"/>
<path d="M170.054 37.0194L168.451 35.368C164.845 40.9825 150.706 62.1913 139.83 59.4487C137.197 58.7881 134.249 56.5768 130.843 54.0783C123.015 48.1909 121.212 43.8831 116.962 43.7683C115.288 43.7683 112.769 44.4144 109.649 48.0761C109.472 48.289 109.361 48.5487 109.328 48.8239C109.295 49.0991 109.342 49.3779 109.463 49.6269C112.049 54.6012 115.31 59.1919 119.151 63.2683C124.743 69.2029 131.463 73.9535 138.914 77.2399C139.097 77.321 139.294 77.3629 139.494 77.3629C139.693 77.3629 139.891 77.321 140.073 77.2399C146.625 74.5965 152.672 70.8364 157.947 66.1258C162.598 61.9472 167.392 57.6394 170.054 50.2013C171.616 45.5873 172.163 40.6883 171.657 35.8419C171.657 35.7414 171.657 35.4255 171.657 35.368C171.657 35.3106 170.655 36.1434 170.054 37.0194Z" fill="url(#paint1_linear_53_2200)"/>
<path d="M14.652 115.797H23.544V128.397C22.152 128.853 20.748 129.189 19.332 129.405C17.916 129.621 16.308 129.729 14.508 129.729C11.844 129.729 9.6 129.201 7.776 128.145C5.952 127.065 4.56 125.541 3.6 123.573C2.664 121.581 2.196 119.229 2.196 116.517C2.196 113.829 2.724 111.501 3.78 109.533C4.836 107.565 6.348 106.041 8.316 104.961C10.308 103.857 12.708 103.305 15.516 103.305C16.956 103.305 18.312 103.437 19.584 103.701C20.88 103.965 22.08 104.337 23.184 104.817L21.96 107.625C21.048 107.217 20.016 106.869 18.864 106.581C17.736 106.293 16.56 106.149 15.336 106.149C13.296 106.149 11.544 106.569 10.08 107.409C8.616 108.249 7.5 109.449 6.732 111.009C5.964 112.545 5.58 114.381 5.58 116.517C5.58 118.557 5.904 120.369 6.552 121.953C7.224 123.513 8.268 124.737 9.684 125.625C11.1 126.489 12.96 126.921 15.264 126.921C16.032 126.921 16.704 126.897 17.28 126.849C17.88 126.777 18.42 126.693 18.9 126.597C19.404 126.501 19.872 126.405 20.304 126.309V118.677H14.652V115.797ZM52.1114 116.481C52.1114 118.473 51.8594 120.285 51.3554 121.917C50.8514 123.525 50.0954 124.917 49.0874 126.093C48.1034 127.269 46.8674 128.169 45.3794 128.793C43.9154 129.417 42.2114 129.729 40.2674 129.729C38.2514 129.729 36.4994 129.417 35.0114 128.793C33.5234 128.145 32.2874 127.245 31.3034 126.093C30.3194 124.917 29.5874 123.513 29.1074 121.881C28.6274 120.249 28.3874 118.437 28.3874 116.445C28.3874 113.805 28.8194 111.501 29.6834 109.533C30.5474 107.565 31.8554 106.029 33.6074 104.925C35.3834 103.821 37.6154 103.269 40.3034 103.269C42.8714 103.269 45.0314 103.821 46.7834 104.925C48.5354 106.005 49.8554 107.541 50.7434 109.533C51.6554 111.501 52.1114 113.817 52.1114 116.481ZM31.8074 116.481C31.8074 118.641 32.1074 120.501 32.7074 122.061C33.3074 123.621 34.2314 124.821 35.4794 125.661C36.7514 126.501 38.3474 126.921 40.2674 126.921C42.2114 126.921 43.7954 126.501 45.0194 125.661C46.2674 124.821 47.1914 123.621 47.7914 122.061C48.3914 120.501 48.6914 118.641 48.6914 116.481C48.6914 113.241 48.0194 110.709 46.6754 108.885C45.3314 107.037 43.2074 106.113 40.3034 106.113C38.3594 106.113 36.7514 106.533 35.4794 107.373C34.2314 108.189 33.3074 109.377 32.7074 110.937C32.1074 112.473 31.8074 114.321 31.8074 116.481ZM80.2364 116.481C80.2364 118.473 79.9844 120.285 79.4804 121.917C78.9764 123.525 78.2204 124.917 77.2124 126.093C76.2284 127.269 74.9924 128.169 73.5044 128.793C72.0404 129.417 70.3364 129.729 68.3924 129.729C66.3764 129.729 64.6244 129.417 63.1364 128.793C61.6484 128.145 60.4124 127.245 59.4284 126.093C58.4444 124.917 57.7124 123.513 57.2324 121.881C56.7524 120.249 56.5124 118.437 56.5124 116.445C56.5124 113.805 56.9444 111.501 57.8084 109.533C58.6724 107.565 59.9804 106.029 61.7324 104.925C63.5084 103.821 65.7404 103.269 68.4284 103.269C70.9964 103.269 73.1564 103.821 74.9084 104.925C76.6604 106.005 77.9804 107.541 78.8684 109.533C79.7804 111.501 80.2364 113.817 80.2364 116.481ZM59.9324 116.481C59.9324 118.641 60.2324 120.501 60.8324 122.061C61.4324 123.621 62.3564 124.821 63.6044 125.661C64.8764 126.501 66.4724 126.921 68.3924 126.921C70.3364 126.921 71.9204 126.501 73.1444 125.661C74.3924 124.821 75.3164 123.621 75.9164 122.061C76.5164 120.501 76.8164 118.641 76.8164 116.481C76.8164 113.241 76.1444 110.709 74.8004 108.885C73.4564 107.037 71.3324 106.113 68.4284 106.113C66.4844 106.113 64.8764 106.533 63.6044 107.373C62.3564 108.189 61.4324 109.377 60.8324 110.937C60.2324 112.473 59.9324 114.321 59.9324 116.481ZM106.301 106.149C104.933 106.149 103.697 106.389 102.593 106.869C101.489 107.325 100.553 108.009 99.785 108.921C99.017 109.809 98.429 110.901 98.021 112.197C97.613 113.469 97.409 114.909 97.409 116.517C97.409 118.629 97.733 120.465 98.381 122.025C99.053 123.585 100.037 124.785 101.333 125.625C102.653 126.465 104.297 126.885 106.265 126.885C107.393 126.885 108.461 126.789 109.469 126.597C110.477 126.405 111.461 126.165 112.421 125.877V128.685C111.461 129.045 110.465 129.309 109.433 129.477C108.425 129.645 107.213 129.729 105.797 129.729C103.181 129.729 100.997 129.189 99.245 128.109C97.493 127.029 96.173 125.493 95.285 123.501C94.421 121.509 93.989 119.169 93.989 116.481C93.989 114.537 94.253 112.761 94.781 111.153C95.333 109.545 96.125 108.153 97.157 106.977C98.213 105.801 99.509 104.901 101.045 104.277C102.581 103.629 104.345 103.305 106.337 103.305C107.657 103.305 108.929 103.437 110.153 103.701C111.377 103.965 112.469 104.337 113.429 104.817L112.133 107.553C111.341 107.193 110.453 106.869 109.469 106.581C108.509 106.293 107.453 106.149 106.301 106.149ZM134.159 129.369L131.063 121.413H120.875L117.815 129.369H114.539L124.583 103.557H127.499L137.507 129.369H134.159ZM127.211 110.757C127.139 110.565 127.019 110.217 126.851 109.713C126.683 109.209 126.515 108.693 126.347 108.165C126.203 107.613 126.083 107.193 125.987 106.905C125.867 107.385 125.735 107.877 125.591 108.381C125.471 108.861 125.339 109.305 125.195 109.713C125.075 110.121 124.967 110.469 124.871 110.757L121.955 118.533H130.091L127.211 110.757ZM152.363 129.369L143.903 106.833H143.759C143.807 107.313 143.843 107.925 143.867 108.669C143.915 109.413 143.951 110.229 143.975 111.117C143.999 111.981 144.011 112.869 144.011 113.781V129.369H141.023V103.665H145.811L153.731 124.725H153.875L161.939 103.665H166.691V129.369H163.487V113.565C163.487 112.725 163.499 111.897 163.523 111.081C163.547 110.241 163.583 109.461 163.631 108.741C163.679 107.997 163.715 107.373 163.739 106.869H163.595L155.027 129.369H152.363ZM181.027 103.665C183.163 103.665 184.951 103.869 186.391 104.277C187.855 104.685 188.947 105.357 189.667 106.293C190.411 107.229 190.783 108.477 190.783 110.037C190.783 111.045 190.591 111.945 190.207 112.737C189.847 113.505 189.295 114.153 188.551 114.681C187.831 115.185 186.943 115.533 185.887 115.725V115.905C186.967 116.073 187.939 116.385 188.803 116.841C189.691 117.297 190.387 117.945 190.891 118.785C191.395 119.625 191.647 120.717 191.647 122.061C191.647 123.621 191.287 124.953 190.567 126.057C189.847 127.137 188.815 127.965 187.471 128.541C186.151 129.093 184.567 129.369 182.719 129.369H173.683V103.665H181.027ZM181.675 114.609C183.883 114.609 185.395 114.261 186.211 113.565C187.027 112.845 187.435 111.789 187.435 110.397C187.435 108.981 186.931 107.973 185.923 107.373C184.939 106.749 183.355 106.437 181.171 106.437H176.923V114.609H181.675ZM176.923 117.309V126.633H182.107C184.387 126.633 185.971 126.189 186.859 125.301C187.747 124.413 188.191 123.249 188.191 121.809C188.191 120.897 187.987 120.105 187.579 119.433C187.195 118.761 186.535 118.245 185.599 117.885C184.687 117.501 183.439 117.309 181.855 117.309H176.923ZM219.525 116.481C219.525 118.473 219.273 120.285 218.769 121.917C218.265 123.525 217.509 124.917 216.501 126.093C215.517 127.269 214.281 128.169 212.793 128.793C211.329 129.417 209.625 129.729 207.681 129.729C205.665 129.729 203.913 129.417 202.425 128.793C200.937 128.145 199.701 127.245 198.717 126.093C197.733 124.917 197.001 123.513 196.521 121.881C196.041 120.249 195.801 118.437 195.801 116.445C195.801 113.805 196.233 111.501 197.097 109.533C197.961 107.565 199.269 106.029 201.021 104.925C202.797 103.821 205.029 103.269 207.717 103.269C210.285 103.269 212.445 103.821 214.197 104.925C215.949 106.005 217.269 107.541 218.157 109.533C219.069 111.501 219.525 113.817 219.525 116.481ZM199.221 116.481C199.221 118.641 199.521 120.501 200.121 122.061C200.721 123.621 201.645 124.821 202.893 125.661C204.165 126.501 205.761 126.921 207.681 126.921C209.625 126.921 211.209 126.501 212.433 125.661C213.681 124.821 214.605 123.621 215.205 122.061C215.805 120.501 216.105 118.641 216.105 116.481C216.105 113.241 215.433 110.709 214.089 108.885C212.745 107.037 210.621 106.113 207.717 106.113C205.773 106.113 204.165 106.533 202.893 107.373C201.645 108.189 200.721 109.377 200.121 110.937C199.521 112.473 199.221 114.321 199.221 116.481ZM245.814 116.265C245.814 119.145 245.274 121.557 244.194 123.501C243.138 125.445 241.614 126.909 239.622 127.893C237.63 128.877 235.218 129.369 232.386 129.369H225.222V103.665H233.142C235.734 103.665 237.978 104.145 239.874 105.105C241.77 106.065 243.234 107.481 244.266 109.353C245.298 111.201 245.814 113.505 245.814 116.265ZM242.394 116.373C242.394 114.093 242.01 112.221 241.242 110.757C240.498 109.293 239.394 108.213 237.93 107.517C236.49 106.797 234.738 106.437 232.674 106.437H228.462V126.597H231.954C235.434 126.597 238.038 125.745 239.766 124.041C241.518 122.313 242.394 119.757 242.394 116.373ZM258.755 129.369H249.467V127.497L252.491 126.813V106.257L249.467 105.537V103.665H258.755V105.537L255.731 106.257V126.813L258.755 127.497V129.369ZM279.847 129.369L276.751 121.413H266.563L263.503 129.369H260.227L270.271 103.557H273.187L283.195 129.369H279.847ZM272.899 110.757C272.827 110.565 272.707 110.217 272.539 109.713C272.371 109.209 272.203 108.693 272.035 108.165C271.891 107.613 271.771 107.193 271.675 106.905C271.555 107.385 271.423 107.877 271.279 108.381C271.159 108.861 271.027 109.305 270.883 109.713C270.763 110.121 270.655 110.469 270.559 110.757L267.643 118.533H275.779L272.899 110.757Z" fill="url(#paint2_linear_53_2200)"/>
<defs>
<linearGradient id="paint0_linear_53_2200" x1="177.094" y1="27.3464" x2="184.295" y2="27.3464" gradientUnits="userSpaceOnUse">
<stop stop-color="white"/>
<stop offset="1" stop-color="white" stop-opacity="0"/>
</linearGradient>
<linearGradient id="paint1_linear_53_2200" x1="177.462" y1="52.1817" x2="184.434" y2="52.1817" gradientUnits="userSpaceOnUse">
<stop stop-color="white"/>
<stop offset="1" stop-color="white" stop-opacity="0"/>
</linearGradient>
<linearGradient id="paint2_linear_53_2200" x1="309.54" y1="111.396" x2="341.209" y2="111.396" gradientUnits="userSpaceOnUse">
<stop stop-color="white"/>
<stop offset="1" stop-color="white" stop-opacity="0"/>
</linearGradient>
</defs>
</svg>
