<svg width="26" height="25" viewBox="0 0 26 25" fill="none" xmlns="http://www.w3.org/2000/svg">
<rect width="26" height="25" fill="white"/>
<path fill-rule="evenodd" clip-rule="evenodd" d="M3.95881 18.4738C3.31513 18.8978 3.24992 19.1878 3.24992 19.2708C3.24992 19.3399 3.28899 19.5535 3.70857 19.8874C4.12127 20.2158 4.7836 20.5581 5.69747 20.8656C7.51521 21.4773 10.097 21.875 12.9999 21.875C15.9029 21.875 18.4846 21.4773 20.3024 20.8656C21.2162 20.5581 21.8786 20.2158 22.2913 19.8874C22.7108 19.5535 22.7499 19.3399 22.7499 19.2708C22.7499 19.1878 22.6847 18.8978 22.041 18.4738C21.4275 18.0697 20.4749 17.6774 19.2245 17.3613L19.7754 15.3464C21.1562 15.6955 22.3703 16.1653 23.2656 16.7551C24.1308 17.3251 24.9166 18.161 24.9166 19.2708C24.9166 20.2085 24.3494 20.9539 23.6726 21.4925C22.9889 22.0365 22.0647 22.4798 21.0181 22.832C18.915 23.5398 16.0801 23.9583 12.9999 23.9583C9.91978 23.9583 7.08488 23.5398 4.98172 22.832C3.93514 22.4798 3.01097 22.0365 2.32727 21.4925C1.65046 20.9539 1.08325 20.2085 1.08325 19.2708C1.08325 18.161 1.86906 17.3251 2.73422 16.7551C3.62958 16.1653 4.84365 15.6955 6.22447 15.3464L6.77536 17.3613C5.52489 17.6774 4.57229 18.0697 3.95881 18.4738Z" fill="#21A6F8"/>
<path fill-rule="evenodd" clip-rule="evenodd" d="M13 18.7501C12.4416 19.6427 12.4413 19.6425 12.4409 19.6423L12.4401 19.6418L12.438 19.6406L12.4318 19.637L12.412 19.6253C12.3955 19.6156 12.3724 19.6018 12.3433 19.5842C12.2851 19.5489 12.2024 19.4979 12.0988 19.4319C11.8917 19.2999 11.6003 19.1071 11.2526 18.8581C10.5589 18.3612 9.63191 17.6338 8.70133 16.7107C6.86853 14.8928 4.875 12.169 4.875 8.85425C4.875 4.53952 8.51269 1.04175 13 1.04175C17.4873 1.04175 21.125 4.53952 21.125 8.85425C21.125 12.169 19.1315 14.8928 17.2987 16.7107C16.3681 17.6338 15.4411 18.3612 14.7474 18.8581C14.3997 19.1071 14.1083 19.2999 13.9012 19.4319C13.7976 19.4979 13.7149 19.5489 13.6567 19.5842C13.6276 19.6018 13.6045 19.6156 13.588 19.6253L13.5682 19.637L13.562 19.6406L13.5599 19.6418L13.5591 19.6423C13.5587 19.6425 13.5584 19.6427 13 18.7501ZM13 18.7501L13.5584 19.6427C13.2148 19.8414 12.7852 19.8414 12.4416 19.6427L13 18.7501ZM8.66667 8.33341C8.66667 6.03223 10.6068 4.16675 13 4.16675C15.3932 4.16675 17.3333 6.03223 17.3333 8.33341C17.3333 10.6346 15.3932 12.5001 13 12.5001C10.6068 12.5001 8.66667 10.6346 8.66667 8.33341Z" fill="#21A6F8"/>
</svg>
