<svg width="163" height="78" viewBox="0 0 163 78" fill="none" xmlns="http://www.w3.org/2000/svg">
<path d="M11.232 26.468C9.84 26.468 8.502 26.252 7.218 25.82C5.946 25.376 4.83 24.746 3.87 23.93C2.91 23.102 2.22 22.112 1.8 20.96L5.922 19.448C6.09 19.928 6.432 20.366 6.948 20.762C7.464 21.158 8.094 21.476 8.838 21.716C9.582 21.956 10.38 22.076 11.232 22.076C12.108 22.076 12.924 21.944 13.68 21.68C14.448 21.404 15.066 21.026 15.534 20.546C16.002 20.054 16.236 19.484 16.236 18.836C16.236 18.176 15.99 17.636 15.498 17.216C15.006 16.784 14.376 16.442 13.608 16.19C12.84 15.938 12.048 15.746 11.232 15.614C9.444 15.338 7.842 14.912 6.426 14.336C5.01 13.76 3.888 12.962 3.06 11.942C2.244 10.922 1.836 9.602 1.836 7.982C1.836 6.458 2.274 5.126 3.15 3.986C4.026 2.846 5.178 1.958 6.606 1.322C8.034 0.685999 9.576 0.368 11.232 0.368C12.612 0.368 13.944 0.584 15.228 1.016C16.512 1.448 17.634 2.078 18.594 2.906C19.566 3.734 20.262 4.73 20.682 5.894L16.542 7.388C16.374 6.908 16.032 6.47 15.516 6.074C15 5.678 14.37 5.366 13.626 5.138C12.882 4.898 12.084 4.778 11.232 4.778C10.38 4.766 9.57 4.904 8.802 5.192C8.046 5.468 7.428 5.846 6.948 6.326C6.468 6.806 6.228 7.358 6.228 7.982C6.228 8.786 6.45 9.392 6.894 9.8C7.35 10.208 7.956 10.508 8.712 10.7C9.468 10.88 10.308 11.048 11.232 11.204C12.912 11.468 14.466 11.912 15.894 12.536C17.322 13.16 18.468 13.994 19.332 15.038C20.196 16.07 20.628 17.336 20.628 18.836C20.628 20.36 20.196 21.698 19.332 22.85C18.468 23.99 17.322 24.878 15.894 25.514C14.466 26.15 12.912 26.468 11.232 26.468ZM33.851 12.392H30.359V26H25.967V12.392H23.303V8H25.967V2.348H30.359V8H33.851V12.392ZM50.2554 8H54.6474V26H50.2554L50.0574 23.768C49.5654 24.572 48.9114 25.226 48.0954 25.73C47.2914 26.222 46.3374 26.468 45.2334 26.468C43.9014 26.468 42.6534 26.216 41.4894 25.712C40.3254 25.208 39.2994 24.512 38.4114 23.624C37.5354 22.736 36.8454 21.71 36.3414 20.546C35.8494 19.382 35.6034 18.134 35.6034 16.802C35.6034 15.518 35.8374 14.312 36.3054 13.184C36.7854 12.056 37.4514 11.066 38.3034 10.214C39.1554 9.362 40.1394 8.696 41.2554 8.216C42.3714 7.736 43.5714 7.496 44.8554 7.496C46.0434 7.496 47.1054 7.76 48.0414 8.288C48.9894 8.816 49.7934 9.488 50.4534 10.304L50.2554 8ZM45.1254 22.238C46.0614 22.238 46.8894 22.004 47.6094 21.536C48.3294 21.068 48.8934 20.438 49.3014 19.646C49.7094 18.842 49.9134 17.96 49.9134 17C49.9134 16.028 49.7094 15.146 49.3014 14.354C48.8934 13.55 48.3234 12.914 47.5914 12.446C46.8714 11.978 46.0494 11.744 45.1254 11.744C44.2014 11.744 43.3554 11.984 42.5874 12.464C41.8314 12.932 41.2254 13.562 40.7694 14.354C40.3254 15.146 40.1034 16.028 40.1034 17C40.1034 17.972 40.3314 18.854 40.7874 19.646C41.2434 20.438 41.8494 21.068 42.6054 21.536C43.3734 22.004 44.2134 22.238 45.1254 22.238ZM58.2522 26L58.2342 8H62.6262L62.6442 9.602C63.2562 8.954 63.9882 8.444 64.8402 8.072C65.6922 7.688 66.6102 7.496 67.5942 7.496C68.2542 7.496 68.9142 7.592 69.5742 7.784L67.8462 12.212C67.3902 12.032 66.9342 11.942 66.4782 11.942C65.7702 11.942 65.1222 12.116 64.5342 12.464C63.9582 12.8 63.4962 13.262 63.1482 13.85C62.8122 14.426 62.6442 15.068 62.6442 15.776V26H58.2522ZM81.7338 12.392H78.2418V26H73.8498V12.392H71.1858V8H73.8498V2.348H78.2418V8H81.7338V12.392ZM105.985 8H110.647L100.801 35H96.1386L99.3966 26L92.9166 8H97.7226L101.593 19.988L105.985 8ZM120.365 26.468C118.709 26.468 117.197 26.042 115.829 25.19C114.473 24.338 113.387 23.198 112.571 21.77C111.767 20.33 111.365 18.74 111.365 17C111.365 15.68 111.599 14.45 112.067 13.31C112.535 12.158 113.177 11.15 113.993 10.286C114.821 9.41 115.781 8.726 116.873 8.234C117.965 7.742 119.129 7.496 120.365 7.496C122.021 7.496 123.527 7.922 124.883 8.774C126.251 9.626 127.337 10.772 128.141 12.212C128.957 13.652 129.365 15.248 129.365 17C129.365 18.308 129.131 19.532 128.663 20.672C128.195 21.812 127.547 22.82 126.719 23.696C125.903 24.56 124.949 25.238 123.857 25.73C122.777 26.222 121.613 26.468 120.365 26.468ZM120.365 22.076C121.241 22.076 122.027 21.842 122.723 21.374C123.419 20.906 123.965 20.288 124.361 19.52C124.769 18.752 124.973 17.912 124.973 17C124.973 16.064 124.763 15.212 124.343 14.444C123.935 13.664 123.377 13.046 122.669 12.59C121.973 12.122 121.205 11.888 120.365 11.888C119.501 11.888 118.721 12.122 118.025 12.59C117.329 13.058 116.777 13.682 116.369 14.462C115.961 15.242 115.757 16.088 115.757 17C115.757 17.948 115.967 18.806 116.387 19.574C116.807 20.342 117.365 20.954 118.061 21.41C118.769 21.854 119.537 22.076 120.365 22.076ZM131.061 19.34V8H135.453V18.188C135.453 18.896 135.627 19.544 135.975 20.132C136.323 20.708 136.785 21.17 137.361 21.518C137.949 21.854 138.591 22.022 139.287 22.022C140.007 22.022 140.655 21.854 141.231 21.518C141.807 21.17 142.269 20.708 142.617 20.132C142.965 19.544 143.139 18.896 143.139 18.188V8H147.531L147.549 26H143.157L143.139 24.362C142.515 25.01 141.777 25.526 140.925 25.91C140.073 26.282 139.161 26.468 138.189 26.468C136.881 26.468 135.687 26.15 134.607 25.514C133.527 24.866 132.663 24.008 132.015 22.94C131.379 21.86 131.061 20.66 131.061 19.34ZM151.17 26L151.152 8H155.544L155.562 9.602C156.174 8.954 156.906 8.444 157.758 8.072C158.61 7.688 159.528 7.496 160.512 7.496C161.172 7.496 161.832 7.592 162.492 7.784L160.764 12.212C160.308 12.032 159.852 11.942 159.396 11.942C158.688 11.942 158.04 12.116 157.452 12.464C156.876 12.8 156.414 13.262 156.066 13.85C155.73 14.426 155.562 15.068 155.562 15.776V26H151.17ZM5.832 69.468C4.908 69.468 4.002 69.312 3.114 69C2.238 68.688 1.44 68.226 0.72 67.614L3.528 64.23C3.792 64.446 4.116 64.644 4.5 64.824C4.884 64.992 5.328 65.076 5.832 65.076C6.492 65.076 7.092 64.908 7.632 64.572C8.172 64.224 8.604 63.774 8.928 63.222C9.264 62.658 9.432 62.046 9.432 61.386V43.8H13.824V61.386C13.824 62.862 13.464 64.212 12.744 65.436C12.024 66.648 11.058 67.626 9.846 68.37C8.634 69.102 7.296 69.468 5.832 69.468ZM26.0761 69.468C24.4201 69.468 22.9081 69.042 21.5401 68.19C20.1841 67.338 19.0981 66.198 18.2821 64.77C17.4781 63.33 17.0761 61.74 17.0761 60C17.0761 58.68 17.3101 57.45 17.7781 56.31C18.2461 55.158 18.8881 54.15 19.7041 53.286C20.5321 52.41 21.4921 51.726 22.5841 51.234C23.6761 50.742 24.8401 50.496 26.0761 50.496C27.7321 50.496 29.2381 50.922 30.5941 51.774C31.9621 52.626 33.0481 53.772 33.8521 55.212C34.6681 56.652 35.0761 58.248 35.0761 60C35.0761 61.308 34.8421 62.532 34.3741 63.672C33.9061 64.812 33.2581 65.82 32.4301 66.696C31.6141 67.56 30.6601 68.238 29.5681 68.73C28.4881 69.222 27.3241 69.468 26.0761 69.468ZM26.0761 65.076C26.9521 65.076 27.7381 64.842 28.4341 64.374C29.1301 63.906 29.6761 63.288 30.0721 62.52C30.4801 61.752 30.6841 60.912 30.6841 60C30.6841 59.064 30.4741 58.212 30.0541 57.444C29.6461 56.664 29.0881 56.046 28.3801 55.59C27.6841 55.122 26.9161 54.888 26.0761 54.888C25.2121 54.888 24.4321 55.122 23.7361 55.59C23.0401 56.058 22.4881 56.682 22.0801 57.462C21.6721 58.242 21.4681 59.088 21.4681 60C21.4681 60.948 21.6781 61.806 22.0981 62.574C22.5181 63.342 23.0761 63.954 23.7721 64.41C24.4801 64.854 25.2481 65.076 26.0761 65.076ZM36.772 62.34V51H41.164V61.188C41.164 61.896 41.338 62.544 41.686 63.132C42.034 63.708 42.496 64.17 43.072 64.518C43.66 64.854 44.302 65.022 44.998 65.022C45.718 65.022 46.366 64.854 46.942 64.518C47.518 64.17 47.98 63.708 48.328 63.132C48.676 62.544 48.85 61.896 48.85 61.188V51H53.242L53.26 69H48.868L48.85 67.362C48.226 68.01 47.488 68.526 46.636 68.91C45.784 69.282 44.872 69.468 43.9 69.468C42.592 69.468 41.398 69.15 40.318 68.514C39.238 67.866 38.374 67.008 37.726 65.94C37.09 64.86 36.772 63.66 36.772 62.34ZM56.8811 69L56.8631 51H61.2551L61.2731 52.602C61.8851 51.954 62.6171 51.444 63.4691 51.072C64.3211 50.688 65.2391 50.496 66.2231 50.496C66.8831 50.496 67.5431 50.592 68.2031 50.784L66.4751 55.212C66.0191 55.032 65.5631 54.942 65.1071 54.942C64.3991 54.942 63.7511 55.116 63.1631 55.464C62.5871 55.8 62.1251 56.262 61.7771 56.85C61.4411 57.426 61.2731 58.068 61.2731 58.776V69H56.8811ZM86.7808 57.624V69H82.3888V58.776C82.3888 58.068 82.2148 57.426 81.8668 56.85C81.5188 56.262 81.0508 55.8 80.4628 55.464C79.8868 55.116 79.2448 54.942 78.5368 54.942C77.8288 54.942 77.1808 55.116 76.5928 55.464C76.0168 55.8 75.5548 56.262 75.2068 56.85C74.8708 57.426 74.7028 58.068 74.7028 58.776V69H70.3108L70.2928 51H74.6848L74.7028 52.602C75.3148 51.954 76.0468 51.444 76.8988 51.072C77.7508 50.688 78.6688 50.496 79.6528 50.496C80.9608 50.496 82.1548 50.82 83.2348 51.468C84.3148 52.104 85.1728 52.962 85.8088 54.042C86.4568 55.11 86.7808 56.304 86.7808 57.624ZM97.9355 69.468C96.2795 69.468 94.7675 69.042 93.3995 68.19C92.0435 67.338 90.9575 66.192 90.1415 64.752C89.3375 63.312 88.9355 61.722 88.9355 59.982C88.9355 58.674 89.1695 57.45 89.6375 56.31C90.1055 55.158 90.7475 54.15 91.5635 53.286C92.3915 52.41 93.3515 51.726 94.4435 51.234C95.5355 50.742 96.6995 50.496 97.9355 50.496C99.3395 50.496 100.623 50.796 101.787 51.396C102.963 51.984 103.959 52.794 104.775 53.826C105.591 54.858 106.185 56.034 106.557 57.354C106.929 58.674 107.013 60.054 106.809 61.494H93.6515C93.8195 62.166 94.0955 62.772 94.4795 63.312C94.8635 63.84 95.3495 64.266 95.9375 64.59C96.5255 64.902 97.1915 65.064 97.9355 65.076C98.7035 65.088 99.3995 64.908 100.023 64.536C100.659 64.152 101.187 63.636 101.607 62.988L106.089 64.032C105.357 65.628 104.265 66.936 102.813 67.956C101.361 68.964 99.7355 69.468 97.9355 69.468ZM93.5075 58.2H102.363C102.231 57.48 101.949 56.832 101.517 56.256C101.097 55.668 100.575 55.2 99.9515 54.852C99.3275 54.504 98.6555 54.33 97.9355 54.33C97.2155 54.33 96.5495 54.504 95.9375 54.852C95.3255 55.188 94.8035 55.65 94.3715 56.238C93.9515 56.814 93.6635 57.468 93.5075 58.2ZM120.961 51H125.623L115.777 78H111.115L114.373 69L107.893 51H112.699L116.569 62.988L120.961 51Z" fill="#212121"/>
</svg>
