<svg width="32" height="32" viewBox="0 0 32 32" fill="none" xmlns="http://www.w3.org/2000/svg">
<path fill-rule="evenodd" clip-rule="evenodd" d="M16 0.949219C16.5799 0.949219 17.05 1.41932 17.05 1.99922V3.79359C22.9778 4.2968 27.7024 9.02136 28.2056 14.9492H30C30.5799 14.9492 31.05 15.4193 31.05 15.9992C31.05 16.5791 30.5799 17.0492 30 17.0492H28.2056C27.7024 22.9771 22.9778 27.7016 17.05 28.2049V29.9992C17.05 30.5791 16.5799 31.0492 16 31.0492C15.4201 31.0492 14.95 30.5791 14.95 29.9992V28.2049C9.02209 27.7016 4.29754 22.9771 3.79432 17.0492H1.99995C1.42005 17.0492 0.949951 16.5791 0.949951 15.9992C0.949951 15.4193 1.42005 14.9492 1.99995 14.9492H3.79432C4.29754 9.02136 9.02209 4.2968 14.95 3.79359V1.99922C14.95 1.41932 15.4201 0.949219 16 0.949219ZM16 5.84922C10.3943 5.84922 5.84995 10.3935 5.84995 15.9992C5.84995 21.6049 10.3943 26.1492 16 26.1492C21.6056 26.1492 26.15 21.6049 26.15 15.9992C26.15 10.3935 21.6056 5.84922 16 5.84922ZM16 12.8492C14.2603 12.8492 12.85 14.2595 12.85 15.9992C12.85 17.7389 14.2603 19.1492 16 19.1492C17.7396 19.1492 19.15 17.7389 19.15 15.9992C19.15 14.2595 17.7396 12.8492 16 12.8492ZM10.75 15.9992C10.75 13.0997 13.1005 10.7492 16 10.7492C18.8994 10.7492 21.25 13.0997 21.25 15.9992C21.25 18.8987 18.8994 21.2492 16 21.2492C13.1005 21.2492 10.75 18.8987 10.75 15.9992Z" fill="#FFD420"/>
</svg>
