<svg width="15" height="15" viewBox="0 0 15 15" fill="none" xmlns="http://www.w3.org/2000/svg">
<path fill-rule="evenodd" clip-rule="evenodd" d="M0.0603235 12.5837V15H10.7997V12.1371L0.0603235 12.5837ZM11.3131 0.607444C11.2465 5.28536 11.4538 10.3221 11.3872 15H15V3.50275C14.1482 2.33279 12.743 1.11322 11.3131 0.607444ZM0.0603235 3.18402C0.0850423 4.04479 -0.0195373 4.93036 0.00328006 5.79113C2.59686 3.78713 5.9453 2.49312 10.7959 3.18402V0.408952C7.6433 -0.476626 4.18647 -0.0834601 0.0603235 3.18402ZM0.0603235 6.39997V8.86012C3.04053 7.11695 6.62032 6.56092 10.7997 7.19202V4.29863C7.37709 3.60391 3.80237 4.24328 0.0603235 6.39806V6.39997ZM0.0603235 9.39452V11.9711C3.54568 11.0702 7.10329 10.9137 10.7997 11.0702V8.1654C7.17358 7.80631 3.51283 8.22528 0.0603235 9.39452Z" fill="black"/>
</svg>
