<svg width="13" height="13" viewBox="0 0 13 13" fill="none" xmlns="http://www.w3.org/2000/svg">
<path fill-rule="evenodd" clip-rule="evenodd" d="M7.07792 0.0514218C6.97072 0.108022 6.88086 0.257837 6.88086 0.379949C6.88086 0.505947 6.97067 0.652233 7.08332 0.709721C7.16881 0.753345 7.23288 0.760836 7.52004 0.760836H7.85654L7.40982 1.21155C7.16412 1.45946 6.94459 1.69883 6.92197 1.74352C6.83244 1.92051 6.90879 2.14264 7.08911 2.22994C7.19707 2.2822 7.23486 2.28438 8.03248 2.28438C8.81509 2.28438 8.86917 2.28141 8.96355 2.23327C9.07621 2.17578 9.16602 2.02949 9.16602 1.9035C9.16602 1.7775 9.07621 1.63121 8.96355 1.57372C8.87806 1.5301 8.814 1.52261 8.52683 1.52261H8.19033L8.63705 1.07189C8.88276 0.823987 9.10229 0.584613 9.12491 0.539922C9.21444 0.362936 9.13809 0.140803 8.95776 0.053504C8.8496 0.00114476 8.81334 -0.000886643 8.00907 0.000179841C7.22673 0.00124632 7.16673 0.00454735 7.07792 0.0514218ZM4.03104 2.33674C3.92384 2.39334 3.83398 2.54316 3.83398 2.66527C3.83398 2.79127 3.92379 2.93755 4.03645 2.99504C4.12194 3.03867 4.186 3.04616 4.47317 3.04616H4.80967L4.36295 3.49687C4.11724 3.74475 3.89771 3.98415 3.87509 4.02885C3.78556 4.20583 3.86191 4.42796 4.04224 4.51526C4.1502 4.56752 4.18798 4.56971 4.9856 4.56971C5.76822 4.56971 5.8223 4.56673 5.91668 4.51859C6.02933 4.4611 6.11914 4.31482 6.11914 4.18882C6.11914 4.06282 6.02933 3.91653 5.91668 3.85905C5.83119 3.81542 5.76713 3.80793 5.47996 3.80793H5.14346L5.59018 3.35721C5.83588 3.10931 6.05541 2.86993 6.07803 2.82524C6.16756 2.64826 6.09121 2.42612 5.91089 2.33882C5.80272 2.28647 5.76647 2.28443 4.96219 2.2855C4.17986 2.28657 4.11986 2.28987 4.03104 2.33674ZM0.197057 3.86029C0.139039 3.89094 0.0822656 3.94934 0.0510605 4.01051C0.000507809 4.10964 0 4.15289 0 8.40396C0 12.6568 0.000482423 12.6983 0.0511113 12.7975C0.108596 12.9102 0.254871 13 0.380859 13C0.506848 13 0.653123 12.9102 0.710607 12.7975C0.757732 12.7051 0.761719 12.6486 0.761719 12.0742V11.4511H6.5H12.2383V12.0742C12.2383 12.6486 12.2423 12.7051 12.2894 12.7975C12.3469 12.9102 12.4932 13 12.6191 13C12.7451 13 12.8914 12.9102 12.9489 12.7975C12.9983 12.7007 13 12.6503 13 11.2997V9.90212H9.33451C6.94748 9.90212 5.62138 9.89308 5.53239 9.87619C5.07637 9.78971 4.70811 9.42142 4.62163 8.96537C4.60736 8.89021 4.5957 8.72742 4.5957 8.60365V8.37857H2.67871H0.761719V6.24459C0.761719 4.15599 0.760627 4.10848 0.710607 4.01041C0.616916 3.82675 0.387563 3.75971 0.197057 3.86029ZM3.22735 5.35895C2.65063 5.4722 2.23542 6.06598 2.33071 6.64117C2.41325 7.13929 2.78802 7.51409 3.28611 7.59664C4.0203 7.71829 4.69719 7.04136 4.57554 6.30711C4.46832 5.66011 3.8627 5.23417 3.22735 5.35895ZM6.27423 6.12073C5.83835 6.20632 5.46782 6.58449 5.38335 7.03C5.369 7.1056 5.35742 7.54006 5.35742 8.00216C5.35742 8.78942 5.36037 8.84346 5.40853 8.93787C5.44144 9.00239 5.49537 9.05632 5.55989 9.08923C5.65894 9.13976 5.70202 9.14035 9.33004 9.14035H13V8.15349C13 7.58846 12.9889 7.10826 12.9741 7.03C12.8876 6.57396 12.5193 6.20566 12.0633 6.11918C11.8944 6.08713 6.43784 6.08858 6.27423 6.12073Z" fill="#979797"/>
</svg>
