<svg width="47" height="47" viewBox="0 0 47 47" fill="none" xmlns="http://www.w3.org/2000/svg">
<circle cx="23.5" cy="23.5" r="23.5" fill="#FFD420" fill-opacity="0.1"/>
<path fill-rule="evenodd" clip-rule="evenodd" d="M33.551 16.9993C34.1479 18.1862 34.1479 19.74 34.1479 22.8475V24.1617C34.1479 26.0361 34.1479 26.9734 33.9266 27.7379C33.4018 29.5513 32.0021 30.9694 30.2123 31.5011C29.4577 31.7253 28.5326 31.7253 26.6825 31.7253H26.0814L26.0101 31.7254C24.8926 31.7326 23.8041 32.0861 22.8906 32.7382L22.8325 32.7801L19.9729 34.8496C18.9926 35.559 17.7045 34.5345 18.1519 33.4012C18.4688 32.5985 17.8853 31.7253 17.0319 31.7253H16.3728C14.0913 31.7253 12.2417 29.8514 12.2417 27.5398V22.8475C12.2417 19.74 12.2417 18.1862 12.8386 16.9993C13.3637 15.9553 14.2015 15.1065 15.2319 14.5745C16.4034 13.9697 17.937 13.9697 21.0042 13.9697H25.3854C28.4526 13.9697 29.9862 13.9697 31.1577 14.5745C32.1881 15.1065 33.0259 15.9553 33.551 16.9993ZM18.8136 19.7958C18.3599 19.7958 17.9921 20.1684 17.9921 20.6281C17.9921 21.0877 18.3599 21.4604 18.8136 21.4604H27.576C28.0297 21.4604 28.3975 21.0877 28.3975 20.6281C28.3975 20.1684 28.0297 19.7958 27.576 19.7958H18.8136ZM18.8136 24.7895C18.3599 24.7895 17.9921 25.1621 17.9921 25.6218C17.9921 26.0815 18.3599 26.4541 18.8136 26.4541H27.576C28.0297 26.4541 28.3975 26.0815 28.3975 25.6218C28.3975 25.1621 28.0297 24.7895 27.576 24.7895H18.8136Z" fill="url(#paint0_linear_331_5016)"/>
<defs>
<linearGradient id="paint0_linear_331_5016" x1="23.1948" y1="13.9697" x2="23.1948" y2="35.0837" gradientUnits="userSpaceOnUse">
<stop stop-color="#FFD420"/>
<stop offset="0.96875" stop-color="#FD7705" stop-opacity="0.7"/>
</linearGradient>
</defs>
</svg>
