<svg width="24" height="22" viewBox="0 0 24 22" fill="none" xmlns="http://www.w3.org/2000/svg">
<path d="M11.9023 19.6717C18.2536 19.6717 23.4023 15.268 23.4023 9.83585C23.4023 4.40366 18.2536 0 11.9023 0C5.55107 0 0.402344 4.40366 0.402344 9.83585C0.402344 15.268 5.55107 19.6717 11.9023 19.6717Z" fill="#21A6F8"/>
<path d="M19.6412 10.064H4.22449V20.7551H19.6412V10.064Z" fill="#D3E6F8"/>
<path d="M19.6412 10.1541H18.1301V20.7549H19.6412V10.1541Z" fill="#A4CFF2"/>
<path d="M5.91895 20.7551V13.3521H10.5912V20.7551" fill="#21A6F8"/>
<path d="M17.9467 13.3521H12.1578V16.5119H17.9467V13.3521Z" fill="white"/>
<path d="M19.6467 21.0353H4.22451C4.04673 21.0353 3.89673 20.9117 3.89673 20.7549V10.0638C3.89673 9.91174 4.04117 9.78345 4.22451 9.78345H19.6412C19.819 9.78345 19.969 9.90699 19.969 10.0638V20.7549C19.969 20.907 19.8245 21.0353 19.6467 21.0353ZM4.55228 20.4746H19.319V10.3394H4.55228V20.4746Z" fill="#4C4372"/>
<path d="M10.5912 21.0355C10.4135 21.0355 10.2635 20.9119 10.2635 20.7551V13.6325H6.24125V20.7551C6.24125 20.9072 6.0968 21.0355 5.91347 21.0355C5.73014 21.0355 5.58569 20.9119 5.58569 20.7551V13.3521C5.58569 13.2001 5.73014 13.0718 5.91347 13.0718H10.5857C10.7635 13.0718 10.9135 13.1953 10.9135 13.3521V20.7551C10.919 20.9072 10.7746 21.0355 10.5912 21.0355Z" fill="#4C4372"/>
<path d="M14.8023 13.5801H14.319V16.26H14.8023V13.5801Z" fill="#D3E6F8"/>
<path d="M17.6745 13.5801H17.1912V16.26H17.6745V13.5801Z" fill="#D3E6F8"/>
<path d="M17.9523 16.7875H12.1579C11.9801 16.7875 11.8301 16.664 11.8301 16.5072V13.3521C11.8301 13.2001 11.9745 13.0718 12.1579 13.0718H17.9467C18.1245 13.0718 18.2745 13.1953 18.2745 13.3521V16.5119C18.2745 16.664 18.1301 16.7875 17.9523 16.7875ZM12.4856 16.2316H17.6245V13.6325H12.4856V16.2316Z" fill="#4C4372"/>
<path d="M15.0524 16.7875C14.8746 16.7875 14.7246 16.664 14.7246 16.5072V13.3521C14.7246 13.2001 14.8691 13.0718 15.0524 13.0718C15.2302 13.0718 15.3802 13.1953 15.3802 13.3521V16.5119C15.3802 16.664 15.2357 16.7875 15.0524 16.7875Z" fill="#4C4372"/>
<path d="M18.8967 6.03927C19.4367 6.03927 19.8745 5.66485 19.8745 5.20298C19.8745 4.74112 19.4367 4.3667 18.8967 4.3667C18.3567 4.3667 17.9189 4.74112 17.9189 5.20298C17.9189 5.66485 18.3567 6.03927 18.8967 6.03927Z" fill="#FD919E"/>
<path d="M18.8969 6.31969C18.1802 6.31969 17.5913 5.82077 17.5913 5.20306C17.5913 4.5901 18.1746 4.08643 18.8969 4.08643C19.6191 4.08643 20.2024 4.58535 20.2024 5.20306C20.2024 5.81602 19.6135 6.31969 18.8969 6.31969ZM18.8969 4.64712C18.5358 4.64712 18.2469 4.89895 18.2469 5.20306C18.2469 5.51191 18.5413 5.759 18.8969 5.759C19.258 5.759 19.5469 5.50716 19.5469 5.20306C19.5469 4.8942 19.258 4.64712 18.8969 4.64712Z" fill="#4C4372"/>
<path d="M11.9022 10.0639H1.7522L6.82442 6.03927L11.9022 2.01465L16.9744 6.03927L22.0466 10.0639H11.9022Z" fill="#EFF4FF" fill-opacity="0.57"/>
<path d="M20.7244 21.7197H3.07997C2.34664 21.7197 1.7522 21.2302 1.7522 20.622C1.7522 20.0138 2.34664 19.5244 3.07997 19.5244H20.7244C21.4578 19.5244 22.0522 20.0138 22.0522 20.622C22.0522 21.2302 21.4578 21.7197 20.7244 21.7197Z" fill="#A4CFF2"/>
<path d="M20.8357 21.7195H17.3246V19.5291H20.8357C21.5413 19.5291 22.1135 20.0185 22.1135 20.6219C22.119 21.2301 21.5468 21.7195 20.8357 21.7195Z" fill="#7BABF1"/>
<path d="M20.7246 21.9998H3.08012C2.169 21.9998 1.42456 21.3821 1.42456 20.6219C1.42456 19.8616 2.16345 19.2439 3.08012 19.2439H20.7246C21.6357 19.2439 22.3801 19.8616 22.3801 20.6219C22.3801 21.3821 21.6357 21.9998 20.7246 21.9998ZM3.08012 19.8046C2.53012 19.8046 2.08012 20.1705 2.08012 20.6219C2.08012 21.0733 2.53012 21.4391 3.08012 21.4391H20.7246C21.2746 21.4391 21.7246 21.0733 21.7246 20.6219C21.7246 20.1705 21.2746 19.8046 20.7246 19.8046H3.08012Z" fill="#4C4372"/>
<path d="M11.9022 2.01465L10.63 3.02199L19.8133 10.0639H22.0467L11.9022 2.01465Z" fill="#21A6F8"/>
<path d="M22.0467 10.3396H1.75223C1.6189 10.3396 1.49668 10.2683 1.44668 10.1638C1.39668 10.0592 1.43001 9.9357 1.53001 9.85968L11.68 1.81043C11.8022 1.71065 11.9967 1.71065 12.1245 1.81043L22.2745 9.85968C22.3745 9.9357 22.4078 10.0592 22.3578 10.1638C22.3022 10.2731 22.18 10.3396 22.0467 10.3396ZM2.58557 9.78365H21.2189L11.9022 2.39488L2.58557 9.78365Z" fill="#4C4372"/>
</svg>
