<svg width="48" height="48" viewBox="0 0 48 48" fill="none" xmlns="http://www.w3.org/2000/svg">
<circle cx="24" cy="24" r="24" fill="#21A6F8"/>
<path fill-rule="evenodd" clip-rule="evenodd" d="M24.035 12.3334C26.6716 12.345 29.1916 13.395 31.035 15.2384C32.89 17.0934 33.9283 19.6017 33.9166 22.2034V22.2617C33.8466 25.7967 31.8633 29.0517 29.39 31.595C27.99 33.03 26.4383 34.3017 24.7466 35.375C24.2916 35.76 23.6266 35.76 23.1716 35.375C20.6633 33.7417 18.4466 31.6884 16.65 29.2967C15.075 27.22 14.1766 24.7234 14.0833 22.1217C14.1066 16.6967 18.5633 12.3217 24.035 12.3334ZM24.035 25.47C24.8633 25.47 25.6566 25.155 26.24 24.5834C26.8466 23.9884 27.1861 23.1962 27.1861 22.3667C27.1861 20.64 25.7733 19.2517 24.035 19.2517C22.2966 19.2517 20.8966 20.64 20.8966 22.3667C20.8966 24.0712 22.2733 25.4467 24 25.47H24.035Z" fill="white"/>
</svg>
