<svg width="19" height="19" viewBox="0 0 19 19" fill="none" xmlns="http://www.w3.org/2000/svg">
<path fill-rule="evenodd" clip-rule="evenodd" d="M3.3559 0.0598784C2.27869 0.290346 1.42501 1.15198 1.20315 2.2327C1.15276 2.4782 1.14443 2.90584 1.14443 5.24808V7.9774H1.70186H2.25929V5.30712C2.25929 3.45681 2.27222 2.57647 2.30143 2.44019C2.43808 1.8026 2.95121 1.29015 3.58965 1.15369C3.87822 1.09201 5.2023 1.09958 5.44571 1.16431C5.76854 1.25011 5.98233 1.37369 6.21756 1.6104C6.47272 1.86718 6.68514 2.25062 6.60148 2.30354C6.57398 2.32095 6.53348 2.33542 6.51144 2.33576C6.48944 2.33606 6.36424 2.37981 6.23328 2.43296C5.51398 2.72484 4.87018 3.40478 4.64004 4.11563C4.53089 4.45283 4.48961 4.74554 4.48931 5.18469L4.48901 5.56509H7.28129H10.0736L10.0528 5.03624C10.0299 4.4518 9.96583 4.17089 9.76501 3.7755C9.6025 3.45551 9.43665 3.23789 9.15418 2.97402C8.85487 2.69441 8.5416 2.50915 8.14021 2.37447C7.96916 2.31705 7.82002 2.2609 7.8088 2.24973C7.79762 2.23852 7.74139 2.08959 7.6839 1.91876C7.54361 1.50184 7.35699 1.19485 7.04327 0.865032C6.61873 0.418718 6.08088 0.133324 5.48086 0.0360893C5.11917 -0.0225483 3.66502 -0.00625591 3.3559 0.0598784ZM11.9392 8.0429C11.6982 8.12785 11.5327 8.24728 11.3975 8.43369C11.181 8.73215 11.1782 8.76459 11.1782 10.9717V12.9876H12.8516H14.5251L14.5146 10.9L14.5042 8.81243L14.4005 8.60155C14.283 8.36266 14.103 8.18834 13.8557 8.07411C13.7033 8.00367 13.6096 7.99503 12.9062 7.98657C12.2379 7.97847 12.099 7.9866 11.9392 8.0429ZM0.743268 9.16106C0.367375 9.29073 0.105643 9.59205 0.0216941 9.99175C-0.0624406 10.3922 0.103153 10.8332 0.431516 11.0833C0.754343 11.3292 0.499783 11.3175 5.51773 11.3175H10.0633V10.2041V9.09077L5.50167 9.092C1.18055 9.09315 0.929673 9.09678 0.743268 9.16106ZM15.6376 10.2041V11.3211L16.9104 11.3101L18.1832 11.299L18.3944 11.1954C18.7924 11.0002 18.9987 10.6625 19 10.2041C19.0006 9.97367 18.9829 9.88954 18.8971 9.71493C18.7796 9.47603 18.5996 9.30172 18.3523 9.18748C18.1925 9.11363 18.1133 9.10873 16.9104 9.09823L15.6376 9.08713V10.2041ZM1.14458 13.4051C1.14477 14.5235 1.18557 14.8663 1.38502 15.4236C1.67607 16.2368 2.21879 16.9006 3.03969 17.4473L3.1326 17.5091L2.78027 17.8648L2.42793 18.2205L2.81687 18.6102L3.20581 19L3.74521 18.4629L4.28462 17.9258L4.52617 17.961C4.84822 18.008 14.1635 18.008 14.4856 17.961L14.7271 17.9258L15.2665 18.4629L15.8059 19L16.1949 18.6102L16.5838 18.2205L16.2408 17.8765C16.0521 17.6873 15.8977 17.5222 15.8977 17.5097C15.8977 17.4971 16.0103 17.414 16.1479 17.3248C16.6498 16.9996 17.2662 16.2811 17.4973 15.752C17.8073 15.0421 17.867 14.6636 17.8672 13.4051L17.8673 12.4309H16.7525H15.6376V13.2659V14.1009H12.8505H10.0633V13.2659V12.4309H5.60387H1.14443L1.14458 13.4051Z" fill="#21A6F8"/>
</svg>
