<svg width="14" height="14" viewBox="0 0 14 14" fill="none" xmlns="http://www.w3.org/2000/svg">
<path d="M4.06659 8.60417C4.06659 8.6755 4.00875 8.73333 3.93742 8.73333C3.86609 8.73333 3.80825 8.6755 3.80825 8.60417C3.80825 8.53283 3.86609 8.475 3.93742 8.475C4.00875 8.475 4.06659 8.53283 4.06659 8.60417Z" fill="#333333" stroke="#252729" stroke-width="1.2"/>
<path d="M10.1916 8.60417C10.1916 8.6755 10.1338 8.73333 10.0624 8.73333C9.99109 8.73333 9.93325 8.6755 9.93325 8.60417C9.93325 8.53283 9.99109 8.475 10.0624 8.475C10.1338 8.475 10.1916 8.53283 10.1916 8.60417Z" fill="#333333" stroke="#252729" stroke-width="1.2"/>
<path d="M2.04175 10.7917C1.5585 10.7917 1.16675 10.3999 1.16675 9.91667V7.207C1.16675 6.54392 1.5415 5.93778 2.13467 5.64147L2.33357 5.5421L3.00731 2.65182C3.13042 2.12367 3.6012 1.75 4.1435 1.75H9.88592C10.4323 1.75 10.9055 2.12916 11.0245 2.66238L11.6677 5.5421L11.8661 5.6413C12.4589 5.93775 12.8334 6.54369 12.8334 7.20653V9.91667C12.8334 10.3999 12.4417 10.7917 11.9584 10.7917H11.376V11.0833C11.376 11.7277 10.8532 12.25 10.2089 12.25C9.56453 12.25 9.04175 11.7277 9.04175 11.0833V10.7917H4.95841V11.0834C4.95841 11.7277 4.43613 12.25 3.79184 12.25C3.14754 12.25 2.62524 11.7277 2.62524 11.0834V10.7917H2.04175Z" stroke="#252729" stroke-width="1.2" stroke-linejoin="round"/>
<path d="M4.08325 6.41602H9.91659L9.43475 4.24779C9.37546 3.98092 9.13874 3.79102 8.86533 3.79102H5.13451C4.8611 3.79102 4.62438 3.98092 4.56509 4.24779L4.08325 6.41602Z" stroke="#252729" stroke-width="1.2" stroke-linejoin="round"/>
</svg>
