<svg width="48" height="48" viewBox="0 0 48 48" fill="none" xmlns="http://www.w3.org/2000/svg">
<circle cx="24" cy="24" r="24" fill="#5FDA6B"/>
<path d="M31.63 14.8067L25.2133 12.4033C24.5483 12.1583 23.4633 12.1583 22.7983 12.4033L16.3817 14.8067C15.145 15.2733 14.1417 16.72 14.1417 18.0383V27.4883C14.1417 28.4333 14.76 29.6817 15.5183 30.2417L21.935 35.0367C23.0667 35.8883 24.9217 35.8883 26.0533 35.0367L32.47 30.2417C33.2283 29.67 33.8467 28.4333 33.8467 27.4883V18.0383C33.8583 16.72 32.855 15.2733 31.63 14.8067ZM28.06 21.34L23.0433 26.3567C22.8683 26.5317 22.6467 26.6133 22.425 26.6133C22.2033 26.6133 21.9817 26.5317 21.8067 26.3567L19.94 24.4667C19.6017 24.1283 19.6017 23.5683 19.94 23.23C20.2783 22.8917 20.8383 22.8917 21.1767 23.23L22.4367 24.49L26.835 20.0917C27.1733 19.7533 27.7333 19.7533 28.0717 20.0917C28.41 20.43 28.41 21.0017 28.06 21.34Z" fill="white"/>
</svg>
