<svg width="48" height="48" viewBox="0 0 48 48" fill="none" xmlns="http://www.w3.org/2000/svg">
<circle cx="24" cy="24" r="24" fill="#FFD420"/>
<path fill-rule="evenodd" clip-rule="evenodd" d="M35.0309 15.5184C35.6666 16.7662 35.6666 18.3997 35.6666 21.6667V23.0483C35.6666 25.0189 35.6666 26.0043 35.431 26.808C34.872 28.7145 33.3811 30.2053 31.4746 30.7643C30.6709 31 29.6856 31 27.7149 31H27.0746L26.9987 31.0001C25.8084 31.0077 24.6489 31.3793 23.6759 32.0649L23.6141 32.109L20.5682 34.2846C19.5241 35.0304 18.152 33.9533 18.6285 32.762C18.9661 31.918 18.3446 31 17.4356 31H16.7336C14.3034 31 12.3333 29.0299 12.3333 26.5997V21.6667C12.3333 18.3997 12.3333 16.7662 12.9691 15.5184C13.5284 14.4208 14.4208 13.5284 15.5184 12.9691C16.7662 12.3333 18.3997 12.3333 21.6666 12.3333H26.3333C29.6003 12.3333 31.2338 12.3333 32.4816 12.9691C33.5792 13.5284 34.4716 14.4208 35.0309 15.5184ZM19.3333 18.4583C18.8501 18.4583 18.4583 18.8501 18.4583 19.3333C18.4583 19.8166 18.8501 20.2083 19.3333 20.2083H28.6666C29.1499 20.2083 29.5416 19.8166 29.5416 19.3333C29.5416 18.8501 29.1499 18.4583 28.6666 18.4583H19.3333ZM19.3333 23.7083C18.8501 23.7083 18.4583 24.1001 18.4583 24.5833C18.4583 25.0666 18.8501 25.4583 19.3333 25.4583H28.6666C29.1499 25.4583 29.5416 25.0666 29.5416 24.5833C29.5416 24.1001 29.1499 23.7083 28.6666 23.7083H19.3333Z" fill="white"/>
</svg>
