<svg width="62" height="79" viewBox="0 0 62 79" fill="none" xmlns="http://www.w3.org/2000/svg">
<path d="M56.3387 71.2439C56.3387 72.7445 55.0715 73.9617 53.5376 73.8783C52.2371 73.8116 51.1533 72.7445 51.0533 71.444C51.0032 70.7771 51.2033 70.1601 51.5535 69.6766C52.0036 69.0597 52.2037 68.3094 52.1537 67.5424C52.1537 67.5091 52.1537 67.4591 52.1537 67.4257C52.1537 66.5587 52.8707 65.8584 53.7543 65.8918C54.5547 65.9251 55.2049 66.5754 55.2383 67.3757C55.2383 67.4257 55.2383 67.4924 55.2383 67.5424C55.1883 68.3094 55.3717 69.0764 55.8218 69.6933C56.1386 70.1101 56.3387 70.6603 56.3387 71.2439Z" fill="#21A6F8"/>
<path d="M50.0031 73.3425C50.0031 74.8431 48.736 76.0603 47.202 75.9769C45.9015 75.9102 44.8177 74.8431 44.7177 73.5426C44.6677 72.8757 44.8677 72.2588 45.2179 71.7752C45.6681 71.1583 45.8681 70.408 45.8181 69.6411C45.8181 69.6077 45.8181 69.5577 45.8181 69.5243C45.8181 68.6573 46.5351 67.9571 47.4188 67.9904C48.2191 68.0237 48.8693 68.674 48.9027 69.4743C48.9027 69.5243 48.9027 69.591 48.9027 69.6411C48.8527 70.408 49.0361 71.175 49.4863 71.7919C49.8031 72.2088 50.0031 72.759 50.0031 73.3425Z" stroke="#21A6F8" stroke-miterlimit="10" stroke-linecap="round" stroke-linejoin="round"/>
<path d="M47.3519 72.1104V77.6959" stroke="#21A6F8" stroke-miterlimit="10" stroke-linecap="round" stroke-linejoin="round"/>
<path d="M56.3387 71.2439C56.3387 72.7445 55.0715 73.9617 53.5376 73.8783C52.2371 73.8116 51.1533 72.7445 51.0533 71.444C51.0032 70.7771 51.2033 70.1601 51.5535 69.6766C52.0036 69.0597 52.2037 68.3094 52.1537 67.5424C52.1537 67.5091 52.1537 67.4591 52.1537 67.4257C52.1537 66.5587 52.8707 65.8584 53.7543 65.8918C54.5547 65.9251 55.2049 66.5754 55.2383 67.3757C55.2383 67.4257 55.2383 67.4924 55.2383 67.5424C55.1883 68.3094 55.3717 69.0764 55.8218 69.6933C56.1386 70.1101 56.3387 70.6603 56.3387 71.2439Z" stroke="#21A6F8" stroke-miterlimit="10" stroke-linecap="round" stroke-linejoin="round"/>
<path d="M53.6876 70.0098V77.6962" stroke="#21A6F8" stroke-miterlimit="10" stroke-linecap="round" stroke-linejoin="round"/>
<path d="M23.9425 54.1709V63.5913" stroke="#21A6F8" stroke-miterlimit="10" stroke-linecap="round" stroke-linejoin="round"/>
<path d="M23.9425 66.876V76.2964" stroke="#21A6F8" stroke-miterlimit="10" stroke-linecap="round" stroke-linejoin="round"/>
<path d="M31.4288 54.0205L23.9258 46.5342L16.4395 54.0205H1L5.86861 43.8164H41.9997L46.8683 54.0205H31.4288Z" fill="#21A6F8" fill-opacity="0.6"/>
<path d="M23.9258 31.4785C21.108 31.4785 18.8237 33.7628 18.8237 36.5805C18.8237 39.3983 21.3247 41.6826 23.9258 41.6826C26.5268 41.6826 29.0278 39.3983 29.0278 36.5805C29.0445 33.7628 26.7602 31.4785 23.9258 31.4785ZM23.9258 40.1653C21.9416 40.1653 20.341 38.5647 20.341 36.5805C20.341 34.5964 21.9416 32.9791 23.9258 32.9791C25.9099 32.9791 27.5105 34.5964 27.5105 36.5805C27.5272 38.5647 25.9099 40.1653 23.9258 40.1653Z" fill="#21A6F8"/>
<path d="M36.114 1.33203C36.114 1.33203 30.8786 6.21732 29.5948 7.96802C28.3109 9.71871 38.3316 20.5564 40.7826 20.3229C43.2336 20.0895 53.9712 13.1868 57.9394 9.66869L61.9077 6.36738C61.891 6.36738 49.9862 8.55158 36.114 1.33203Z" fill="#21A6F8"/>
<path d="M36.114 1.33203C36.114 1.33203 30.8786 6.21732 29.5948 7.96802C28.3109 9.71871 38.3316 20.5564 40.7826 20.3229" stroke="#21A6F8" stroke-miterlimit="10" stroke-linecap="round" stroke-linejoin="round"/>
<path d="M29.8781 9.66699C29.8781 9.66699 26.6768 12.7849 26.36 13.5686C26.0433 14.3522 29.0945 20.1212 34.9968 23.3725C36.4307 24.1561 39.7154 20.0211 39.7154 20.0211" stroke="#21A6F8" stroke-miterlimit="10" stroke-linecap="round" stroke-linejoin="round"/>
<path d="M26.3436 14.1875C26.3436 14.1875 21.1582 14.1875 18.1403 15.7381C15.5226 17.072 11.4043 20.9402 8.96995 23.4745C5.35184 27.226 8.81989 29.2935 13.2883 25.6087" stroke="#21A6F8" stroke-miterlimit="10" stroke-linecap="round" stroke-linejoin="round"/>
<path d="M17.04 20.3223C17.04 20.3223 15.1059 23.1067 15.1726 27.8586C15.256 32.5938 16.7065 36.3453 18.7407 35.6284C20.508 35.0115 20.0412 32.0603 20.1412 28.7923C20.258 24.8741 23.9428 22.0396 27.5275 24.7574C31.1123 27.4751 26.2103 31.5934 28.3779 33.9277C30.5454 36.262 36.0309 29.3092 34.9972 23.3902" stroke="#21A6F8" stroke-miterlimit="10" stroke-linecap="round" stroke-linejoin="round"/>
<path d="M14.072 18.6387C14.072 18.6387 7.80286 20.306 6.23557 21.0896C4.68495 21.8399 5.48527 23.6573 7.28599 23.574" stroke="#21A6F8" stroke-miterlimit="10" stroke-linecap="round" stroke-linejoin="round"/>
<path d="M18.9238 35.5968C18.8571 35.9136 18.8237 36.2471 18.8237 36.5805C18.8237 39.3983 21.3247 41.6826 23.9258 41.6826C26.5268 41.6826 29.0278 39.3983 29.0278 36.5805C29.0278 33.7628 26.7436 31.4785 23.9258 31.4785C22.3751 31.4785 20.9913 32.1621 20.0576 33.2459" stroke="#21A6F8" stroke-miterlimit="10" stroke-linecap="round" stroke-linejoin="round"/>
<path d="M23.7427 38.9462V38.3626C23.4092 38.3626 23.0591 38.2459 22.859 38.1125L22.9924 37.729C23.1925 37.8624 23.4926 37.9791 23.8261 37.9791C24.2429 37.9791 24.5097 37.7457 24.5097 37.4122C24.5097 37.0954 24.2929 36.8953 23.8594 36.7286C23.2758 36.4952 22.909 36.2284 22.909 35.7282C22.909 35.2447 23.2425 34.8945 23.776 34.7945V34.2109H24.1262V34.7612C24.4763 34.7778 24.7097 34.8612 24.8765 34.9612L24.7264 35.3447C24.6097 35.278 24.3763 35.1446 24.0095 35.1446C23.5593 35.1446 23.3926 35.4114 23.3926 35.6448C23.3926 35.945 23.6093 36.095 24.1095 36.2951C24.7097 36.5452 25.0099 36.8286 25.0099 37.3455C25.0099 37.7957 24.6931 38.2292 24.0928 38.3292V38.9295H23.7427V38.9462Z" fill="#21A6F8" fill-opacity="0.6"/>
<path d="M5.46858 64.958V77.7631H2.13391" stroke="#21A6F8" stroke-miterlimit="10" stroke-linecap="round" stroke-linejoin="round"/>
<path d="M5.46838 56.1875V63.4904" stroke="#21A6F8" stroke-miterlimit="10" stroke-linecap="round" stroke-linejoin="round"/>
<path d="M42.4 64.958V77.7631H56.3389" stroke="#21A6F8" stroke-miterlimit="10" stroke-linecap="round" stroke-linejoin="round"/>
<path d="M42.4 54.0195V63.54" stroke="#21A6F8" stroke-miterlimit="10" stroke-linecap="round" stroke-linejoin="round"/>
<path d="M1 54.0205L5.86861 43.8164H41.9997L46.8683 54.0205H31.4288L23.9258 46.5342" stroke="#21A6F8" stroke-miterlimit="10" stroke-linecap="round" stroke-linejoin="round"/>
<path d="M29.2946 76.2969H18.5736V77.7641" stroke="#21A6F8" stroke-miterlimit="10" stroke-linecap="round" stroke-linejoin="round"/>
<path d="M27.544 66.876H20.3578V76.2964H27.544V66.876Z" stroke="#21A6F8" stroke-miterlimit="10" stroke-linecap="round" stroke-linejoin="round"/>
<path d="M27.544 54.1709H20.3578V63.5913H27.544V54.1709Z" stroke="#21A6F8" stroke-miterlimit="10" stroke-linecap="round" stroke-linejoin="round"/>
<path d="M39.6817 66.876H31.2117V72.4282H39.6817V66.876Z" stroke="#21A6F8" stroke-miterlimit="10" stroke-linecap="round" stroke-linejoin="round"/>
<path d="M34.0461 66.876V72.4282" stroke="#21A6F8" stroke-miterlimit="10" stroke-linecap="round" stroke-linejoin="round"/>
<path d="M36.8473 66.876V72.4282" stroke="#21A6F8" stroke-miterlimit="10" stroke-linecap="round" stroke-linejoin="round"/>
<path d="M16.6557 66.876H8.18567V72.4282H16.6557V66.876Z" stroke="#21A6F8" stroke-miterlimit="10" stroke-linecap="round" stroke-linejoin="round"/>
<path d="M11.0201 66.876V72.4282" stroke="#21A6F8" stroke-miterlimit="10" stroke-linecap="round" stroke-linejoin="round"/>
<path d="M13.8213 66.876V72.4282" stroke="#21A6F8" stroke-miterlimit="10" stroke-linecap="round" stroke-linejoin="round"/>
<path d="M23.9426 51.9679C24.5135 51.9679 24.9763 51.5051 24.9763 50.9341C24.9763 50.3632 24.5135 49.9004 23.9426 49.9004C23.3716 49.9004 22.9088 50.3632 22.9088 50.9341C22.9088 51.5051 23.3716 51.9679 23.9426 51.9679Z" stroke="#21A6F8" stroke-miterlimit="10" stroke-linecap="round" stroke-linejoin="round"/>
<path d="M10.7707 55.9863H7.85291V61.772H10.7707V55.9863Z" stroke="#21A6F8" stroke-miterlimit="10" stroke-linecap="round" stroke-linejoin="round"/>
<path d="M15.9729 55.9863H13.0551V61.772H15.9729V55.9863Z" stroke="#21A6F8" stroke-miterlimit="10" stroke-linecap="round" stroke-linejoin="round"/>
<path d="M34.814 55.9863H31.8961V61.772H34.814V55.9863Z" stroke="#21A6F8" stroke-miterlimit="10" stroke-linecap="round" stroke-linejoin="round"/>
<path d="M40.0159 55.9863H37.098V61.772H40.0159V55.9863Z" stroke="#21A6F8" stroke-miterlimit="10" stroke-linecap="round" stroke-linejoin="round"/>
<path d="M43.7004 63.623H4.16797V64.9069H43.7004V63.623Z" stroke="#21A6F8" stroke-miterlimit="10" stroke-linecap="round" stroke-linejoin="round"/>
<path d="M18.8237 45.3164H28.8777" stroke="#21A6F8" stroke-miterlimit="10" stroke-linecap="round" stroke-linejoin="round"/>
<path d="M35.5138 21.1228C35.8729 21.1228 36.164 20.8317 36.164 20.4725C36.164 20.1134 35.8729 19.8223 35.5138 19.8223C35.1547 19.8223 34.8635 20.1134 34.8635 20.4725C34.8635 20.8317 35.1547 21.1228 35.5138 21.1228Z" stroke="#21A6F8" stroke-miterlimit="10" stroke-linecap="round" stroke-linejoin="round"/>
</svg>
