<svg width="87" height="77" viewBox="0 0 87 77" fill="none" xmlns="http://www.w3.org/2000/svg">
<path d="M13.9539 70.8443C13.8301 70.3251 13.1761 70.1211 12.6811 70.3065C12.2038 70.492 11.8503 70.937 11.5144 71.345C11.1785 71.753 10.7542 72.1609 10.2416 72.2166C9.00416 72.3649 8.08492 70.492 6.88284 70.8258C6.29948 70.9927 5.96361 71.6417 5.50399 72.0682C4.97366 72.5504 4.28424 72.7358 3.59481 72.9027C2.90538 73.0696 2.21596 73.2551 1.66795 73.7187C1.11994 74.1823 0.801747 75.0168 1.13762 75.6658" stroke="#21A6F8" stroke-miterlimit="10" stroke-linecap="round" stroke-linejoin="round"/>
<path d="M69.7268 68.2094C69.9743 67.7458 70.6284 67.6716 71.088 67.9127C71.5476 68.1538 71.8481 68.6359 72.1133 69.081C72.3784 69.526 72.679 70.0082 73.1386 70.2678C74.2876 70.9354 76.0023 69.9711 76.9216 70.9354C77.664 71.6957 77.3105 73.1422 77.9999 73.9581C78.4065 74.4403 79.0606 74.5701 79.6086 74.8668C80.1566 75.1635 80.6162 75.8867 80.2627 76.4245" stroke="#21A6F8" stroke-miterlimit="10" stroke-linecap="round" stroke-linejoin="round"/>
<path d="M39.7457 45.4364V75.8675H27.4421V56.5444H19.0099V75.8675H13.9541V46.2152H10.5776L25.4445 26.0762L39.7457 45.4364Z" fill="#21A6F8"/>
<path d="M74.4644 44.8067H42.1143L25.462 22.2383H39.0561C39.2682 25.7802 40.3819 29.3036 42.4856 32.4005C48.1954 40.8567 59.0848 43.1933 67.4464 38.0195L71.0879 43.4344L72.6259 42.2846L74.4644 44.8067Z" fill="#21A6F8"/>
<path d="M38.6143 22.2197H25.4445" stroke="#21A6F8" stroke-miterlimit="10" stroke-linecap="round" stroke-linejoin="round"/>
<path d="M8.79211 44.8066L25.4444 22.2197L42.1144 44.8066" stroke="#21A6F8" stroke-miterlimit="10" stroke-linecap="round" stroke-linejoin="round"/>
<path d="M69.7269 46.549H40.5589L25.4445 26.0762L10.5776 46.2152H13.9541" stroke="#21A6F8" stroke-miterlimit="10" stroke-linecap="round" stroke-linejoin="round"/>
<path d="M13.954 75.8682V43.8608L26.2399 27.2266" stroke="#21A6F8" stroke-miterlimit="10" stroke-linecap="round" stroke-linejoin="round"/>
<path d="M69.7267 75.8683V46.5498" stroke="#21A6F8" stroke-miterlimit="10" stroke-linecap="round" stroke-linejoin="round"/>
<path d="M19.0098 75.8671V56.5439H27.442V75.8671" stroke="#21A6F8" stroke-miterlimit="10" stroke-linecap="round" stroke-linejoin="round"/>
<path d="M66.2444 56.5439H60.0219V70.4336H66.2444V56.5439Z" stroke="#21A6F8" stroke-miterlimit="10" stroke-linecap="round" stroke-linejoin="round"/>
<path d="M49.9631 56.5439V70.4336" stroke="#21A6F8" stroke-miterlimit="10" stroke-linecap="round" stroke-linejoin="round"/>
<path d="M56.186 56.5439H43.7233V70.4336H56.186V56.5439Z" stroke="#21A6F8" stroke-miterlimit="10" stroke-linecap="round" stroke-linejoin="round"/>
<path d="M25.4444 46.0118C26.7917 46.0118 27.8839 44.866 27.8839 43.4527C27.8839 42.0393 26.7917 40.8936 25.4444 40.8936C24.0971 40.8936 23.0049 42.0393 23.0049 43.4527C23.0049 44.866 24.0971 46.0118 25.4444 46.0118Z" stroke="#21A6F8" stroke-miterlimit="10" stroke-linecap="round" stroke-linejoin="round"/>
<path d="M69.9741 36.127L73.6157 41.5233L71.0525 43.4148L67.4109 38.0185" stroke="#21A6F8" stroke-miterlimit="10" stroke-linecap="round" stroke-linejoin="round"/>
<path d="M57.8474 40.7454C68.2548 40.7454 76.6917 31.8948 76.6917 20.9772C76.6917 10.0595 68.2548 1.20898 57.8474 1.20898C47.4399 1.20898 39.0031 10.0595 39.0031 20.9772C39.0031 31.8948 47.4399 40.7454 57.8474 40.7454Z" stroke="#21A6F8" stroke-miterlimit="10" stroke-linecap="round" stroke-linejoin="round"/>
<path d="M85.5835 56.0074C85.5482 58.0473 81.9066 60.7547 80.0681 60.0871C76.7447 58.9188 72.2723 48.5526 70.6459 44.5656C70.2747 43.6569 70.4515 42.6926 71.0702 42.229L72.5375 41.1349C73.1562 40.6713 74.0754 40.8196 74.7648 41.4872C77.8231 44.4543 85.6366 52.3356 85.5835 56.0074Z" fill="#21A6F8"/>
<path d="M70.6635 44.5656C70.2923 43.6569 70.4691 42.6926 71.0878 42.229L72.555 41.1349C73.1738 40.6713 74.093 40.8196 74.7824 41.4872C77.823 44.4172 85.6541 52.2985 85.6011 55.9703C85.5658 58.0102 81.9242 60.7176 80.0857 60.05C79.1311 59.7162 78.0881 58.6221 77.0451 57.1571" stroke="#21A6F8" stroke-miterlimit="10" stroke-linecap="round" stroke-linejoin="round"/>
<path d="M46.4277 17.4907C46.852 15.933 47.5768 14.4495 48.5844 13.1514" stroke="#21A6F8" stroke-miterlimit="10" stroke-linecap="round" stroke-linejoin="round"/>
<path d="M46.0739 22.776C45.9678 21.9786 45.9325 21.1626 45.9678 20.3467" stroke="#21A6F8" stroke-miterlimit="10" stroke-linecap="round" stroke-linejoin="round"/>
<path d="M67.3401 32.7725C67.0219 33.0506 66.686 33.3288 66.3501 33.5884C59.721 38.5027 50.5287 36.8522 45.8441 29.8981C43.5991 26.5787 42.7859 22.6473 43.2809 18.9014H54.7536L55.39 20.9783L54.1349 22.4062L57.8649 23.5745V26.078L59.9685 25.466L62.3373 26.078L67.3401 32.7725Z" fill="#21A6F8" fill-opacity="0.6"/>
<path d="M57.8474 36.426C65.98 36.426 72.5728 29.51 72.5728 20.9786C72.5728 12.4473 65.98 5.53125 57.8474 5.53125C49.7148 5.53125 43.1219 12.4473 43.1219 20.9786C43.1219 29.51 49.7148 36.426 57.8474 36.426Z" stroke="#21A6F8" stroke-miterlimit="10" stroke-linecap="round" stroke-linejoin="round"/>
<path d="M43.2633 18.9023H54.7361L55.3725 20.9793L54.1174 22.4072L57.8473 23.557V26.079L59.951 25.467L62.3198 26.079L67.3402 32.7735" stroke="#21A6F8" stroke-miterlimit="10" stroke-linecap="round" stroke-linejoin="round"/>
</svg>
