<svg width="48" height="48" viewBox="0 0 48 48" fill="none" xmlns="http://www.w3.org/2000/svg">
<circle cx="24" cy="24" r="24" fill="#7C92A0"/>
<path fill-rule="evenodd" clip-rule="evenodd" d="M33.0245 22.905C32.405 24.0005 32.7912 25.3876 33.8995 26.02C35.0184 26.6605 35.4034 28.0616 34.7745 29.1688L33.98 30.4883C33.56 31.2105 32.7784 31.655 31.9384 31.655C31.5184 31.655 31.0984 31.5488 30.7495 31.3388C30.375 31.1405 29.9679 31.0238 29.5584 31.0238C28.9284 31.0238 28.3217 31.27 27.8795 31.7121C27.4234 32.145 27.1784 32.7388 27.1784 33.3571C27.1784 34.6288 26.1179 35.6671 24.7984 35.6671H23.2012C22.57 35.6671 21.975 35.4105 21.5434 34.9788C21.1 34.5355 20.8679 33.9521 20.8679 33.3455C20.8679 32.0621 19.8167 31.0238 18.4995 31.0238C18.0667 31.0238 17.6467 31.1405 17.285 31.3633C16.7367 31.6655 16.0834 31.7471 15.4767 31.5955C14.87 31.4321 14.345 31.0355 14.03 30.5105L13.2845 29.1921C12.9334 28.645 12.8284 27.9905 12.9929 27.3721C13.155 26.7538 13.5762 26.2288 14.1467 25.9138C14.5095 25.7155 14.8117 25.4238 15.0217 25.0621C15.6295 23.9655 15.2434 22.5888 14.1467 21.9471C13.0384 21.3171 12.6534 19.9288 13.2845 18.8321L14.03 17.5255C14.345 16.9783 14.87 16.5805 15.4884 16.4171C16.1079 16.2538 16.76 16.346 17.3084 16.6621C17.6817 16.8605 18.09 16.9655 18.4995 16.9655C19.1295 16.9655 19.735 16.7205 20.1784 16.2888C20.6217 15.8571 20.8679 15.2621 20.8679 14.6555C20.8679 13.3721 21.9284 12.3338 23.2467 12.3338H24.8334C25.475 12.3221 26.0829 12.5543 26.5367 12.9988C26.9929 13.4293 27.2367 14.0255 27.2367 14.6555C27.2367 15.9388 28.2984 16.9783 29.6179 16.9783C30.025 16.9783 30.4334 16.8605 30.7962 16.6621C31.9267 16.0543 33.3384 16.4405 33.98 17.5255L34.7745 18.8905C34.9729 19.2405 35.0884 19.6371 35.0884 20.0455C35.0884 20.8738 34.6345 21.645 33.8995 22.0521C33.5367 22.2505 33.2334 22.5538 33.0245 22.905ZM24.0412 27.2205C24.9162 27.2321 25.7329 26.895 26.35 26.2871C26.9684 25.6921 27.3184 24.8755 27.3184 24.0238C27.33 22.7288 26.525 21.5505 25.3012 21.0616C24.0762 20.5588 22.6634 20.8271 21.7184 21.7488C20.785 22.6588 20.4934 24.0471 21.0067 25.2383C21.5095 26.4388 22.6984 27.2205 24.0284 27.2205H24.0412Z" fill="white"/>
</svg>
