<svg width="47" height="45" viewBox="0 0 47 45" fill="none" xmlns="http://www.w3.org/2000/svg">
<path fill-rule="evenodd" clip-rule="evenodd" d="M24.5 0C28.9499 1.18944e-07 33.2998 1.31947 36.9998 3.79157C40.6998 6.26367 43.5837 9.77738 45.2868 13.8884C46.9899 17.9994 47.4358 22.5232 46.568 26.8876C45.7003 31.252 43.5579 35.2612 40.4117 38.408C37.2656 41.5549 33.257 43.6983 28.8927 44.567C24.5285 45.4358 20.0047 44.9909 15.8932 43.2888C11.7818 41.5866 8.26743 38.7035 5.79447 35.0041C3.32152 31.3047 2.00103 26.9551 2 22.5052C2.00138 16.5378 4.3722 10.8151 8.59132 6.59499C12.8104 2.37489 18.5326 0.00275807 24.5 0Z" fill="#21A6F8" fill-opacity="0.17"/>
<path fill-rule="evenodd" clip-rule="evenodd" d="M3.01718 0.0164669H23.1975C23.9806 0.0132231 24.7388 0.298625 25.3335 0.820556C25.6082 1.05489 25.8301 1.34733 25.984 1.6778C26.138 2.00826 26.2203 2.36893 26.2253 2.73505V40.2865C26.2288 40.5576 26.1816 40.8268 26.0865 41.0797H27.3841C27.3789 41.016 27.3789 40.9519 27.3841 40.8882V28.4932C27.3876 28.2486 27.4418 28.0075 27.5431 27.7859C27.6443 27.5643 27.7904 27.3673 27.9715 27.2078C28.3637 26.8535 28.8691 26.6589 29.392 26.6608H38.3687C38.8925 26.663 39.3982 26.857 39.7945 27.2078C39.9729 27.367 40.1168 27.5626 40.217 27.7821C40.3172 28.0015 40.3716 28.2401 40.3766 28.4823V40.8609C40.3818 40.9246 40.3818 40.9886 40.3766 41.0523H41.4019C41.4763 41.0431 41.5518 41.05 41.6235 41.0727C41.6951 41.0953 41.7613 41.1332 41.8177 41.1837C41.8741 41.2343 41.9195 41.2965 41.9509 41.3662C41.9823 41.4359 41.999 41.5116 42 41.5884V42.4526C41.9966 42.525 41.9792 42.5959 41.9488 42.6613C41.9184 42.7267 41.8757 42.7853 41.823 42.8337C41.7704 42.882 41.7089 42.9192 41.6421 42.943C41.5753 42.9668 41.5045 42.9767 41.434 42.9723H23.7048C23.5446 42.9723 23.3897 42.9996 23.2348 42.9996H3.01718C2.23448 43.0114 1.47466 42.7293 0.881132 42.2065C0.608686 41.9709 0.388964 41.678 0.236922 41.3476C0.0848794 41.0172 0.00406946 40.6572 0 40.292V2.71864C0.00545606 2.35369 0.0868984 1.99412 0.238845 1.66397C0.390791 1.33382 0.609757 1.04069 0.881132 0.804147C1.47512 0.280925 2.23377 -0.00466107 3.01718 5.75508e-05V0.0164669ZM36.6599 30.0413H35.0579C34.9515 30.0456 34.8506 30.0905 34.7748 30.1671C34.7037 30.2548 34.6641 30.3648 34.6627 30.4788V31.8956C34.6623 32.0099 34.7021 32.1206 34.7748 32.2074C34.8506 32.284 34.9515 32.3288 35.0579 32.3332H36.6599C36.7665 32.3299 36.8678 32.2849 36.9429 32.2074C37.0209 32.1231 37.0647 32.0117 37.0657 31.8956V30.4788C37.0627 30.3632 37.0191 30.2525 36.9429 30.1671C36.8678 30.0896 36.7665 30.0445 36.6599 30.0413ZM32.6762 37.1139H31.0741C31.0236 37.1138 30.9735 37.1239 30.9268 37.1436C30.8801 37.1633 30.8376 37.1923 30.8018 37.2288C30.7221 37.3168 30.6765 37.4316 30.6736 37.5515V38.9573C30.6765 39.0773 30.7221 39.1921 30.8018 39.2801C30.8376 39.3166 30.8801 39.3456 30.9268 39.3653C30.9735 39.385 31.0236 39.3951 31.0741 39.3949H32.6762C32.7796 39.3943 32.879 39.3532 32.9538 39.2801C33.0305 39.191 33.0724 39.0761 33.0714 38.9573V37.5515C33.0724 37.4328 33.0305 37.3179 32.9538 37.2288C32.879 37.1557 32.7796 37.1146 32.6762 37.1139ZM36.6599 37.1139H35.0579C34.9527 37.1143 34.8516 37.1553 34.7748 37.2288C34.7017 37.3196 34.6621 37.4338 34.6627 37.5515V38.9573C34.6621 39.075 34.7017 39.1892 34.7748 39.2801C34.8516 39.3536 34.9527 39.3946 35.0579 39.3949H36.6599C36.7651 39.3951 36.8664 39.354 36.9429 39.2801C37.0211 39.1915 37.0648 39.0767 37.0657 38.9573V37.5515C37.0648 37.4322 37.0211 37.3173 36.9429 37.2288C36.8664 37.1548 36.7651 37.1137 36.6599 37.1139ZM32.6762 33.5749H31.0741C31.0224 33.5765 30.9715 33.5891 30.9247 33.6116C30.8779 33.6342 30.836 33.6664 30.8018 33.7061C30.7215 33.7893 30.6755 33.901 30.6736 34.0179V35.4292C30.6755 35.5461 30.7215 35.6578 30.8018 35.741C30.836 35.7807 30.8779 35.8129 30.9247 35.8355C30.9715 35.8581 31.0224 35.8706 31.0741 35.8722H32.6762C32.782 35.8678 32.8819 35.8206 32.9538 35.741C33.0312 35.6567 33.0734 35.5448 33.0714 35.4292V34.0179C33.0734 33.9023 33.0312 33.7904 32.9538 33.7061C32.8819 33.6265 32.782 33.5793 32.6762 33.5749ZM36.6599 33.5749H35.0579C34.9504 33.579 34.8488 33.6261 34.7748 33.7061C34.7012 33.7924 34.6613 33.9034 34.6627 34.0179V35.4292C34.6613 35.5437 34.7012 35.6547 34.7748 35.741C34.8488 35.821 34.9504 35.8681 35.0579 35.8722H36.6599C36.7132 35.8708 36.7657 35.8584 36.8144 35.8359C36.863 35.8133 36.9067 35.7811 36.9429 35.741C37.0218 35.6573 37.0658 35.5455 37.0657 35.4292V34.0179C37.0658 33.9016 37.0218 33.7898 36.9429 33.7061C36.9067 33.666 36.863 33.6338 36.8144 33.6112C36.7657 33.5887 36.7132 33.5763 36.6599 33.5749ZM32.6762 30.0413H31.0741C30.9708 30.0451 30.873 30.0902 30.8018 30.1671C30.7241 30.2519 30.6786 30.3626 30.6736 30.4788V31.8956C30.6766 32.0123 30.7224 32.1236 30.8018 32.2074C30.873 32.2842 30.9708 32.3293 31.0741 32.3332H32.6762C32.7809 32.3285 32.88 32.2836 32.9538 32.2074C33.0303 32.1225 33.0723 32.011 33.0714 31.8956V30.4788C33.0703 30.3638 33.0285 30.253 32.9538 30.1671C32.88 30.0908 32.7809 30.0459 32.6762 30.0413ZM10.1996 11.9192H6.37078C6.09267 11.9205 5.82329 12.0189 5.60712 12.1981C5.51211 12.2851 5.4356 12.3912 5.38232 12.5098C5.32904 12.6283 5.30015 12.7569 5.29742 12.8874V15.7591C5.30008 15.8872 5.32903 16.0133 5.38239 16.1293C5.43575 16.2452 5.51231 16.3483 5.60712 16.4319C5.81953 16.6191 6.09055 16.722 6.37078 16.7218H10.1996C10.4784 16.7227 10.7479 16.6196 10.9579 16.4319C11.0543 16.3497 11.132 16.2469 11.1856 16.1306C11.2391 16.0144 11.2671 15.8876 11.2677 15.7591V12.8709C11.2673 12.74 11.2394 12.6108 11.1859 12.4918C11.1325 12.3729 11.0547 12.2672 10.9579 12.1817C10.7443 12.0017 10.4763 11.9031 10.1996 11.9028V11.9192ZM10.1996 4.72066H6.37078C6.09105 4.72329 5.82096 4.82582 5.60712 5.01057C5.51124 5.09563 5.43408 5.20056 5.38069 5.31842C5.3273 5.43629 5.29892 5.5644 5.29742 5.69432V8.55511C5.29892 8.68503 5.3273 8.81316 5.38069 8.93103C5.43408 9.04889 5.51124 9.1538 5.60712 9.23886C5.82197 9.42048 6.09222 9.5192 6.37078 9.51784H10.1996C10.4768 9.52027 10.7456 9.42134 10.9579 9.23886C11.0554 9.15522 11.1338 9.05059 11.1873 8.93241C11.2409 8.81423 11.2683 8.6854 11.2677 8.55511V5.69432C11.2683 5.56403 11.2409 5.43521 11.1873 5.31702C11.1338 5.19884 11.0554 5.09421 10.9579 5.01057C10.7467 4.82498 10.4779 4.72224 10.1996 4.72066ZM19.8118 4.72066H15.983C15.7057 4.71911 15.4376 4.82233 15.23 5.01057C15.1306 5.0929 15.0507 5.19715 14.9962 5.31554C14.9416 5.43393 14.9139 5.56341 14.915 5.69432V8.55511C14.9139 8.68602 14.9416 8.81551 14.9962 8.9339C15.0507 9.05229 15.1306 9.15653 15.23 9.23886C15.4389 9.42359 15.707 9.52292 15.983 9.51784H19.8118C20.0875 9.5209 20.3549 9.42182 20.5648 9.23886C20.663 9.1555 20.7421 9.05105 20.7966 8.93289C20.851 8.81474 20.8795 8.68577 20.8799 8.55511V5.69432C20.8795 5.56366 20.851 5.43469 20.7966 5.31654C20.7421 5.19838 20.663 5.09393 20.5648 5.01057C20.3561 4.82409 20.0887 4.72113 19.8118 4.72066ZM10.1996 33.5037H6.37078C6.09222 33.5024 5.82197 33.6011 5.60712 33.7827C5.51227 33.8687 5.43579 33.9738 5.38248 34.0914C5.32918 34.2091 5.30024 34.3368 5.29742 34.4665V37.3382C5.30065 37.467 5.32981 37.5938 5.3831 37.7105C5.4364 37.8272 5.51267 37.9314 5.60712 38.0165C5.82005 38.2022 6.09115 38.3031 6.37078 38.3009H10.1996C10.4778 38.3038 10.7474 38.2027 10.9579 38.0165C11.0542 37.933 11.1317 37.8291 11.1852 37.712C11.2387 37.595 11.2668 37.4675 11.2677 37.3382V34.4774C11.2672 34.3473 11.2393 34.2188 11.1858 34.1008C11.1324 33.9828 11.0546 33.878 10.9579 33.7937C10.7456 33.6112 10.4768 33.5123 10.1996 33.5147V33.5037ZM19.8118 33.5037H15.983C15.707 33.4987 15.4389 33.598 15.23 33.7827C15.1315 33.8658 15.0522 33.9702 14.9977 34.0884C14.9432 34.2067 14.915 34.3358 14.915 34.4665V37.3382C14.9158 37.468 14.9444 37.596 14.9989 37.7132C15.0533 37.8305 15.1322 37.934 15.23 38.0165C15.4371 38.205 15.706 38.3066 15.983 38.3009H19.8118C20.0886 38.305 20.3569 38.2037 20.5648 38.0165C20.6618 37.9332 20.7401 37.8296 20.7945 37.7125C20.8488 37.5955 20.878 37.4678 20.8799 37.3382V34.4774C20.8784 34.3469 20.8495 34.2183 20.7951 34.1003C20.7407 33.9824 20.6622 33.8778 20.5648 33.7937C20.3549 33.6107 20.0875 33.5116 19.8118 33.5147V33.5037ZM10.1996 26.2998H6.37078C6.09146 26.3046 5.82207 26.4069 5.60712 26.5897C5.51109 26.6758 5.4339 26.7817 5.38053 26.9005C5.32716 27.0192 5.29884 27.1482 5.29742 27.2789V30.1014C5.29892 30.2313 5.3273 30.3594 5.38069 30.4773C5.43408 30.5952 5.51124 30.7001 5.60712 30.7852C5.82329 30.9644 6.09267 31.0628 6.37078 31.0641H10.1996C10.4763 31.0638 10.7443 30.9652 10.9579 30.7852C11.0554 30.7015 11.1338 30.5969 11.1873 30.4787C11.2409 30.3605 11.2683 30.2317 11.2677 30.1014V27.2406C11.2683 27.1095 11.2409 26.9799 11.1874 26.8608C11.1339 26.7417 11.0556 26.6361 10.9579 26.5514C10.7455 26.3678 10.4775 26.2654 10.1996 26.2615V26.2998ZM19.8118 26.2998H15.983C15.7062 26.3007 15.4389 26.4036 15.23 26.5897C15.1305 26.6731 15.0506 26.7783 14.9961 26.8976C14.9415 27.0169 14.9138 27.1472 14.915 27.2789V30.1014C14.9139 30.2323 14.9416 30.3618 14.9962 30.4802C15.0507 30.5986 15.1306 30.7028 15.23 30.7852C15.4402 30.9677 15.7075 31.0667 15.983 31.0641H19.8118C20.0871 31.0648 20.3537 30.966 20.5648 30.7852C20.663 30.7018 20.7421 30.5974 20.7966 30.4792C20.851 30.361 20.8795 30.2321 20.8799 30.1014V27.2406C20.8795 27.1092 20.8511 26.9794 20.7967 26.8603C20.7423 26.7413 20.6631 26.6358 20.5648 26.5514C20.3549 26.367 20.0883 26.2644 19.8118 26.2615V26.2998ZM10.1996 19.1122H6.37078C6.09012 19.1095 5.81827 19.2127 5.60712 19.4021C5.51152 19.485 5.43442 19.588 5.38099 19.7041C5.32755 19.8202 5.29906 19.9466 5.29742 20.0749V22.9467C5.30024 23.0764 5.32918 23.204 5.38248 23.3217C5.43579 23.4394 5.51227 23.5445 5.60712 23.6304C5.82197 23.812 6.09222 23.9107 6.37078 23.9094H10.1996C10.4768 23.9118 10.7456 23.8129 10.9579 23.6304C11.0546 23.5461 11.1324 23.4413 11.1858 23.3233C11.2393 23.2052 11.2672 23.0768 11.2677 22.9467V20.0749C11.2682 19.9462 11.2406 19.819 11.1871 19.7026C11.1335 19.5862 11.0552 19.4836 10.9579 19.4021C10.7492 19.2122 10.4788 19.1088 10.1996 19.1122ZM19.8118 19.1122H15.983C15.7047 19.1046 15.4345 19.2087 15.23 19.4021C15.1309 19.4822 15.051 19.5845 14.9964 19.7011C14.9417 19.8177 14.9139 19.9456 14.915 20.0749V22.9467C14.915 23.0774 14.9432 23.2065 14.9977 23.3247C15.0522 23.4429 15.1315 23.5473 15.23 23.6304C15.4389 23.8152 15.707 23.9145 15.983 23.9094H19.8118C20.0875 23.9124 20.3549 23.8134 20.5648 23.6304C20.6622 23.5463 20.7407 23.4417 20.7951 23.3237C20.8495 23.2057 20.8784 23.0771 20.8799 22.9467V20.0749C20.8798 19.9458 20.8514 19.8183 20.7969 19.7019C20.7424 19.5855 20.663 19.483 20.5648 19.4021C20.3588 19.2111 20.0896 19.1075 19.8118 19.1122ZM19.8118 11.9192H15.983C15.7075 11.9166 15.4402 12.0156 15.23 12.1981C15.1314 12.2823 15.052 12.3877 14.9976 12.5068C14.9431 12.6259 14.9149 12.7558 14.915 12.8874V15.7591C14.9239 15.8933 14.9633 16.0235 15.0301 16.1394C15.0968 16.2552 15.1891 16.3535 15.2994 16.4264C15.5057 16.617 15.7747 16.7205 16.0524 16.7163H19.8813C20.1604 16.7198 20.4308 16.6164 20.6395 16.4264C20.7367 16.3445 20.8152 16.2419 20.8696 16.1257C20.924 16.0095 20.953 15.8825 20.9546 15.7536V12.8709C20.9532 12.7397 20.9244 12.6102 20.87 12.4914C20.8157 12.3725 20.7371 12.2669 20.6395 12.1817C20.4284 12.0009 20.1618 11.9021 19.8866 11.9028L19.8118 11.9192Z" fill="url(#paint0_linear_822_3487)"/>
<defs>
<linearGradient id="paint0_linear_822_3487" x1="21" y1="-15" x2="21" y2="56.5" gradientUnits="userSpaceOnUse">
<stop stop-color="#21A6F8"/>
<stop offset="1" stop-color="#0E6195"/>
</linearGradient>
</defs>
</svg>
