<svg width="46" height="46" viewBox="0 0 46 46" fill="none" xmlns="http://www.w3.org/2000/svg">
<path d="M23 41.5977C33.2712 41.5977 41.5977 33.2712 41.5977 23C41.5977 12.7288 33.2712 4.40234 23 4.40234C12.7288 4.40234 4.40234 12.7288 4.40234 23C4.40234 33.2712 12.7288 41.5977 23 41.5977Z" fill="#21A6F8"/>
<path d="M35.5152 23.4316H10.5836V43.6465H35.5152V23.4316Z" fill="#D3E6F8"/>
<path d="M35.5152 23.6021H33.0715V43.6462H35.5152V23.6021Z" fill="#A4CFF2"/>
<path d="M13.3238 43.6461V29.6484H20.8797V43.6461" fill="#21A6F8"/>
<path d="M32.775 29.6484H23.4133V35.623H32.775V29.6484Z" fill="white"/>
<path d="M35.5242 44.1764H10.5836C10.2961 44.1764 10.0535 43.9428 10.0535 43.6463V23.4314C10.0535 23.1439 10.2871 22.9014 10.5836 22.9014H35.5152C35.8027 22.9014 36.0453 23.135 36.0453 23.4314V43.6463C36.0453 43.9338 35.8117 44.1764 35.5242 44.1764ZM11.1137 43.1162H34.9941V23.9525H11.1137V43.1162Z" fill="#4C4372"/>
<path d="M20.8797 44.1765C20.5922 44.1765 20.3496 43.9429 20.3496 43.6464V30.1788H13.8449V43.6464C13.8449 43.9339 13.6113 44.1765 13.3148 44.1765C13.0184 44.1765 12.7848 43.9429 12.7848 43.6464V29.6487C12.7848 29.3612 13.0184 29.1187 13.3148 29.1187H20.8707C21.1582 29.1187 21.4008 29.3522 21.4008 29.6487V43.6464C21.4098 43.9339 21.1762 44.1765 20.8797 44.1765Z" fill="#4C4372"/>
<path d="M27.6899 30.0801H26.9082V35.1473H27.6899V30.0801Z" fill="#D3E6F8"/>
<path d="M32.3348 30.0801H31.5531V35.1473H32.3348V30.0801Z" fill="#D3E6F8"/>
<path d="M32.784 36.1444H23.4133C23.1258 36.1444 22.8832 35.9108 22.8832 35.6144V29.6487C22.8832 29.3612 23.1168 29.1187 23.4133 29.1187H32.775C33.0625 29.1187 33.3051 29.3522 33.3051 29.6487V35.6233C33.3051 35.9108 33.0715 36.1444 32.784 36.1444ZM23.9434 35.0933H32.2539V30.1788H23.9434V35.0933Z" fill="#4C4372"/>
<path d="M28.0941 36.1444C27.8066 36.1444 27.5641 35.9108 27.5641 35.6144V29.6487C27.5641 29.3612 27.7977 29.1187 28.0941 29.1187C28.3816 29.1187 28.6242 29.3522 28.6242 29.6487V35.6233C28.6242 35.9108 28.3906 36.1444 28.0941 36.1444Z" fill="#4C4372"/>
<path d="M34.3113 15.8217C35.1846 15.8217 35.8926 15.1137 35.8926 14.2404C35.8926 13.3671 35.1846 12.6592 34.3113 12.6592C33.438 12.6592 32.7301 13.3671 32.7301 14.2404C32.7301 15.1137 33.438 15.8217 34.3113 15.8217Z" fill="#FD919E"/>
<path d="M34.3113 16.3516C33.1523 16.3516 32.2 15.4082 32.2 14.2402C32.2 13.0813 33.1434 12.1289 34.3113 12.1289C35.4793 12.1289 36.4227 13.0723 36.4227 14.2402C36.4227 15.3992 35.4703 16.3516 34.3113 16.3516ZM34.3113 13.1891C33.7273 13.1891 33.2602 13.6652 33.2602 14.2402C33.2602 14.8242 33.7363 15.2914 34.3113 15.2914C34.8953 15.2914 35.3625 14.8152 35.3625 14.2402C35.3625 13.6562 34.8953 13.1891 34.3113 13.1891Z" fill="#4C4372"/>
<path d="M23 23.4314H6.58556L14.7883 15.8217L23 8.21191L31.2027 15.8217L39.4055 23.4314H23Z" fill="#EFF4FF" fill-opacity="0.57"/>
<path d="M37.2672 45.4701H8.73282C7.54688 45.4701 6.58556 44.5447 6.58556 43.3947C6.58556 42.2447 7.54688 41.3193 8.73282 41.3193H37.2672C38.4531 41.3193 39.4145 42.2447 39.4145 43.3947C39.4145 44.5447 38.4531 45.4701 37.2672 45.4701Z" fill="#A4CFF2"/>
<path d="M37.4469 45.4699H31.7688V41.3281H37.4469C38.5879 41.3281 39.5133 42.2535 39.5133 43.3945C39.5223 44.5445 38.5969 45.4699 37.4469 45.4699Z" fill="#7BABF1"/>
<path d="M37.2672 46H8.73281C7.25937 46 6.05547 44.832 6.05547 43.3945C6.05547 41.957 7.25039 40.7891 8.73281 40.7891H37.2672C38.7406 40.7891 39.9445 41.957 39.9445 43.3945C39.9445 44.832 38.7406 46 37.2672 46ZM8.73281 41.8492C7.84336 41.8492 7.11562 42.541 7.11562 43.3945C7.11562 44.248 7.84336 44.9398 8.73281 44.9398H37.2672C38.1566 44.9398 38.8844 44.248 38.8844 43.3945C38.8844 42.541 38.1566 41.8492 37.2672 41.8492H8.73281Z" fill="#4C4372"/>
<path d="M23 8.21191L20.9426 10.1166L35.7938 23.4314H39.4055L23 8.21191Z" fill="#21A6F8"/>
<path d="M39.4055 23.9525H6.58555C6.36993 23.9525 6.17227 23.8178 6.09141 23.6201C6.01055 23.4225 6.06446 23.1889 6.22618 23.0451L22.6406 7.82559C22.8383 7.63691 23.1527 7.63691 23.3594 7.82559L39.7738 23.0451C39.9356 23.1889 39.9895 23.4225 39.9086 23.6201C39.8188 23.8268 39.6211 23.9525 39.4055 23.9525ZM7.93321 22.9014H38.0668L23 8.93066L7.93321 22.9014Z" fill="#4C4372"/>
</svg>
