<svg width="23" height="23" viewBox="0 0 23 23" fill="none" xmlns="http://www.w3.org/2000/svg">
<path d="M9.65039 2.70154L3.00914 8.02029C2.26164 8.61446 1.78247 9.86987 1.94539 10.809L3.21997 18.4374C3.44997 19.7982 4.7533 20.9003 6.1333 20.9003H16.8666C18.2371 20.9003 19.55 19.7886 19.78 18.4374L21.0546 10.809C21.2079 9.86987 20.7287 8.61446 19.9908 8.02029L13.3496 2.71113C12.3241 1.88696 10.6662 1.88696 9.65039 2.70154V2.70154Z" stroke="#21A6F8" stroke-opacity="0.6" stroke-width="1.5" stroke-linecap="round" stroke-linejoin="round"/>
<path d="M11.4998 14.8542C12.1353 14.8542 12.7446 14.6017 13.1939 14.1524C13.6433 13.7031 13.8957 13.0937 13.8957 12.4583C13.8957 11.8229 13.6433 11.2135 13.1939 10.7642C12.7446 10.3149 12.1353 10.0625 11.4998 10.0625C10.8644 10.0625 10.255 10.3149 9.80573 10.7642C9.35642 11.2135 9.104 11.8229 9.104 12.4583C9.104 13.0937 9.35642 13.7031 9.80573 14.1524C10.255 14.6017 10.8644 14.8542 11.4998 14.8542Z" stroke="#21A6F8" stroke-opacity="0.6" stroke-width="1.5" stroke-linecap="round" stroke-linejoin="round"/>
</svg>
