<svg width="22" height="22" viewBox="0 0 22 22" fill="none" xmlns="http://www.w3.org/2000/svg">
<path d="M16.98 9.79V13.79C16.98 14.05 16.97 14.3 16.94 14.54C16.71 17.24 15.12 18.58 12.19 18.58H11.79C11.54 18.58 11.3 18.7 11.15 18.9L9.95 20.5C9.42 21.21 8.56 21.21 8.03 20.5L6.83 18.9C6.74995 18.8068 6.65212 18.7305 6.54223 18.6755C6.43234 18.6206 6.31259 18.5881 6.19 18.58H5.79C2.6 18.58 1 17.79 1 13.79V9.79C1 6.86 2.35 5.27 5.04 5.04C5.28 5.01 5.53 5 5.79 5H12.19C15.38 5 16.98 6.6 16.98 9.79Z" stroke="#21A6F8" stroke-width="1.5" stroke-miterlimit="10" stroke-linecap="round" stroke-linejoin="round"/>
<path d="M20.98 5.79V9.79C20.98 12.73 19.63 14.31 16.94 14.54C16.97 14.3 16.98 14.05 16.98 13.79V9.79C16.98 6.6 15.38 5 12.19 5H5.79004C5.53004 5 5.28004 5.01 5.04004 5.04C5.27004 2.35 6.86004 1 9.79004 1H16.19C19.38 1 20.98 2.6 20.98 5.79V5.79Z" stroke="#21A6F8" stroke-width="1.5" stroke-miterlimit="10" stroke-linecap="round" stroke-linejoin="round"/>
<path d="M12.4951 12.25H12.5051M8.99512 12.25H9.00512M5.49512 12.25H5.50512" stroke="#21A6F8" stroke-width="2" stroke-linecap="round" stroke-linejoin="round"/>
</svg>
