<svg width="10" height="8" viewBox="0 0 10 8" fill="none" xmlns="http://www.w3.org/2000/svg">
<path d="M7.46604 4.96699C7.35812 5.07158 7.30854 5.22283 7.33312 5.37116L7.70354 7.42116C7.73479 7.59491 7.66146 7.77074 7.51604 7.87116C7.37354 7.97533 7.18396 7.98783 7.02854 7.90449L5.18312 6.94199C5.11896 6.90782 5.04771 6.88949 4.97479 6.88741H4.86187C4.82271 6.89324 4.78437 6.90574 4.74937 6.92491L2.90354 7.89199C2.81229 7.93783 2.70896 7.95408 2.60771 7.93783C2.36104 7.89116 2.19646 7.65616 2.23687 7.40824L2.60771 5.35824C2.63229 5.20866 2.58271 5.05658 2.47479 4.95033L0.970207 3.49199C0.844374 3.36991 0.800624 3.18658 0.858124 3.02116C0.913957 2.85616 1.05646 2.73574 1.22854 2.70866L3.29937 2.40824C3.45687 2.39199 3.59521 2.29616 3.66604 2.15449L4.57854 0.283659C4.60021 0.241992 4.62812 0.203659 4.66187 0.171159L4.69937 0.141992C4.71896 0.120326 4.74146 0.102409 4.76646 0.0878255L4.81187 0.0711589L4.88271 0.0419922H5.05812C5.21479 0.0582422 5.35271 0.151992 5.42479 0.291992L6.34937 2.15449C6.41604 2.29074 6.54562 2.38533 6.69521 2.40824L8.76604 2.70866C8.94104 2.73366 9.08729 2.85449 9.14521 3.02116C9.19979 3.18824 9.15271 3.37158 9.02437 3.49199L7.46604 4.96699Z" fill="url(#paint0_linear_780_194)"/>
<defs>
<linearGradient id="paint0_linear_780_194" x1="9.1676" y1="7.95919" x2="-0.667117" y2="4.95743" gradientUnits="userSpaceOnUse">
<stop stop-color="#FB9400"/>
<stop offset="1" stop-color="#FFAB38"/>
</linearGradient>
</defs>
</svg>
