<svg width="18" height="18" viewBox="0 0 18 18" fill="none" xmlns="http://www.w3.org/2000/svg">
<path d="M16 16L14.6 14.6M8.65 15.3C9.52329 15.3 10.388 15.128 11.1948 14.7938C12.0017 14.4596 12.7348 13.9698 13.3523 13.3523C13.9698 12.7348 14.4596 12.0017 14.7938 11.1948C15.128 10.388 15.3 9.52329 15.3 8.65C15.3 7.77671 15.128 6.91197 14.7938 6.10515C14.4596 5.29834 13.9698 4.56525 13.3523 3.94774C12.7348 3.33023 12.0017 2.84039 11.1948 2.5062C10.388 2.17201 9.52329 2 8.65 2C6.88631 2 5.19486 2.70062 3.94774 3.94774C2.70062 5.19486 2 6.88631 2 8.65C2 10.4137 2.70062 12.1051 3.94774 13.3523C5.19486 14.5994 6.88631 15.3 8.65 15.3V15.3Z" stroke="#21A6F8" stroke-width="3" stroke-linecap="round" stroke-linejoin="round"/>
</svg>
