<svg width="24" height="23" viewBox="0 0 24 23" fill="none" xmlns="http://www.w3.org/2000/svg">
<path d="M9.5 13.1771C9.5 14.1067 10.25 14.8542 11.17 14.8542H13.05C13.85 14.8542 14.5 14.2025 14.5 13.3879C14.5 12.5158 14.1 12.1996 13.51 11.9983L10.5 10.9921C9.91 10.7908 9.51 10.4842 9.51 9.6025C9.51 8.7975 10.16 8.13625 10.96 8.13625H12.84C13.76 8.13625 14.51 8.88375 14.51 9.81333M12 7.1875V15.8125" stroke="#21A6F8" stroke-opacity="0.5" stroke-width="1.5" stroke-linecap="round" stroke-linejoin="round"/>
<path d="M22 11.4998C22 16.7898 17.52 21.0832 12 21.0832C6.48 21.0832 2 16.7898 2 11.4998C2 6.20984 6.48 1.9165 12 1.9165" stroke="#21A6F8" stroke-opacity="0.5" stroke-width="1.5" stroke-linecap="round" stroke-linejoin="round"/>
<path d="M17 2.87484V6.70817H21M22 1.9165L17 6.70817" stroke="#21A6F8" stroke-opacity="0.5" stroke-width="1.5" stroke-linecap="round" stroke-linejoin="round"/>
</svg>
