<svg width="24" height="24" viewBox="0 0 24 24" fill="none" xmlns="http://www.w3.org/2000/svg">
<path d="M4.89 10.65L19.11 10.65C20.46 10.65 21 10.08 21 8.64L21 5.01C21 3.57 20.46 3 19.11 3L4.89 3C3.54 3 3 3.57 3 5.01L3 8.64C3 10.08 3.54 10.65 4.89 10.65Z" fill="#BFBFBF"/>
<path opacity="0.4" d="M4.89 21.0016L19.11 21.0016C20.46 21.0016 21 20.4316 21 18.9916L21 15.3616C21 13.9316 20.46 13.3516 19.11 13.3516L4.89 13.3516C3.54 13.3516 3 13.9216 3 15.3616L3 18.9916C3 20.4316 3.54 21.0016 4.89 21.0016Z" fill="#BFBFBF"/>
</svg>
