<svg width="24" height="24" viewBox="0 0 24 24" fill="none" xmlns="http://www.w3.org/2000/svg">
<path d="M23 15.3714V17.5614C23 20.0014 21.22 22.3014 18.8 22.9714C18.63 23.0114 18.45 23.0114 18.29 22.9714C17.1216 22.6464 16.0878 21.9561 15.34 21.0014C14.55 20.0214 14.09 18.8114 14.09 17.5614V15.3714C14.09 14.9514 14.4 14.4914 14.78 14.3314L17.56 13.1914C18.19 12.9414 18.89 12.9414 19.52 13.1914L20.52 13.6014L22.31 14.3314C22.69 14.4914 23 14.9514 23 15.3714Z" stroke="black" stroke-width="1.5" stroke-linecap="round" stroke-linejoin="round"/>
<path opacity="0.4" d="M20.95 11.0113L20.52 13.6013L19.52 13.1913C18.89 12.9413 18.19 12.9413 17.56 13.1913L14.78 14.3313C14.4 14.4913 14.09 14.9513 14.09 15.3713V17.5613C14.09 18.8113 14.55 20.0213 15.34 21.0013H6.18004C4.81004 21.0013 3.52004 19.9113 3.29004 18.5613L2.03004 11.0113C1.87004 10.0813 2.34004 8.83126 3.08004 8.24126L9.66004 2.98126C10.67 2.17126 12.31 2.17126 13.32 2.99126L19.9 8.24126C20.63 8.83126 21.11 10.0813 20.95 11.0113Z" stroke="black" stroke-width="1.5" stroke-linecap="round" stroke-linejoin="round"/>
</svg>
