<svg width="14" height="14" viewBox="0 0 14 14" fill="none" xmlns="http://www.w3.org/2000/svg">
<path d="M2.33325 3.5C2.33325 3.01674 2.725 2.625 3.20825 2.625H10.7916C11.2748 2.625 11.6666 3.01674 11.6666 3.5V6.70833H2.33325V3.5Z" stroke="#252729" stroke-width="1.2" stroke-linecap="round" stroke-linejoin="round"/>
<path d="M1.75 10.209V11.3757" stroke="#252729" stroke-width="1.2" stroke-linecap="round" stroke-linejoin="round"/>
<path d="M12.25 10.209V11.3757" stroke="#252729" stroke-width="1.2" stroke-linecap="round" stroke-linejoin="round"/>
<path d="M8.45841 5.25H5.54175C5.05849 5.25 4.66675 5.64174 4.66675 6.125V6.70833H9.33342V6.125C9.33342 5.64174 8.94168 5.25 8.45841 5.25Z" stroke="#252729" stroke-width="1.2" stroke-linecap="round" stroke-linejoin="round"/>
<path d="M1.16675 7.58398C1.16675 7.10072 1.5585 6.70898 2.04175 6.70898H11.9584C12.4417 6.70898 12.8334 7.10072 12.8334 7.58398V10.209H1.16675V7.58398Z" stroke="#252729" stroke-width="1.2" stroke-linecap="round" stroke-linejoin="round"/>
</svg>
